<mxfile host="app.diagrams.net" modified="2023-11-17T06:17:09.762Z" agent="Mozilla/5.0 (Windows NT 10.0; Win64; x64) AppleWebKit/537.36 (KHTML, like Gecko) Chrome/119.0.0.0 Safari/537.36" etag="xTu2P5E584z17h4nIguc" version="22.1.2" type="device" pages="2">
  <diagram name="第 1 页" id="_LRJlWAnNBKeImtyWAni">
    <mxGraphModel dx="2048" dy="736" grid="1" gridSize="10" guides="1" tooltips="1" connect="1" arrows="1" fold="1" page="1" pageScale="1" pageWidth="827" pageHeight="1169" math="0" shadow="0">
      <root>
        <mxCell id="0" />
        <mxCell id="1" parent="0" />
        <mxCell id="gvzwviC2EM5JePrp1jfJ-2" value="" style="shape=image;verticalLabelPosition=bottom;labelBackgroundColor=default;verticalAlign=top;aspect=fixed;imageAspect=0;image=data:image/png,iVBORw0KGgoAAAANSUhEUgAAAQAAAAEACAAAAAB5Gfe6AABws0lEQVR4Xmy9e8xv2XnXt/b9d/+99/ec8577Zc45M3POzHgunhmP7Znx2HHi2ImdxHaIcSDgOAmCJCRAEkxMQgRBCfcUoXIpLaK0KpeUAo1UEAVRWrVSkapIpUjQClq1/1AqgShU0N3n8/0++/d7J+o65/3tvddel2c961nPbV12GeelK6U047KUKm7G+KvaUo1/vay4GctyNu/qaqzjqeH9qhmmdPE/rq3zRaa6aokvVRXPVUeKsY3nOt4veBHXjojIF4VQ8bjsm0jfRPkqcKSwKt4/Kg0lj3Hh1XiU7/VbU36v8iq9Jr5rmrYbVQDvs/w262sDwEbxVdyV8dXhTumj8KPI3kSFXRMPAnXQ77FuWq6lizLnZVYTs+p5qhsVG2FTlTlFkLkEorK9ZaaoJvLXatJCKepmzlO0eBbxfaRarmZDGwCAVBAcjXCLhqgynl/gvo2Y863qizJ611ABXnXofivfE6+bZWTY/N543dWn0aFNF30yGNRZ4FHlLvnpq39Qyo0AA7S0AXfUFz1c1aUeViqPoAb0EUedqxbERaK6jgJpaKQ2II37hHq5o0Jhs69UA0mq6A0RSiR2arBGRAeuBFIlOJQqEDJTf5BgUVGVSozCVnrL01R9ImNzDgTV9VKeUX/UpgAVWKmqhp7s+qDMFjxcv+6MRqDIHoz6QTAbXHJOOAkUOQcg1LRFyago0FsrHfAIdbub1rn8it+knopyBN70apeCJFWSQqnbHV1VqkgYr+hQJZjQsNGY2JRyOJXkeunCSv2v4dIZtQ+v8UtWpzaSdNk11701PTYm84RD2XzlNmsCkmaCVO3PRrhwgvuF99REIlcQDaqgQrXO+QTW/t54ozFZo14qO38tJE/7PYrbKMq18lcJ7ZC4oAowAkur6bE2qloh1Z06Va2CVWVS5O5No4a+r4HvC1VyJ25VKkk0DIW3xj2yyzel3QXV11RZi5q7r4TSXKBT7YDSgIKQL2Mpi8gsohMwpZ4ohkcJLv3mlVfKrcKMLaJrUa9imwlfWQwpdOf33MI1Lwf68PJTUbIkhEtIMy24sCzqfTl3bbwUk5F+yrIE9FTApY7skks4ZLZ9cUkJbqrhE9FeSvAraleFGvW8USck0p0ubxMsv1WLFZ/jKd/p73LppPc1b6b36qSpEAWT1o6kXFhlLqC3XDsLLuSsMoQ832qQjTDTiBj/dFmAoLEcrGKslLFHGDVNyN+6qyTnVRr5aZnkP/lVfOgNErLxfFCXkPS19YMot0657uTNuA3AgqmPKdxGyZemjLcETj+Wp2rrvvyACniOTZ5jC+8AnjdCbur9TO9/7w8/u2raPvUV1xcljn+inIXGUP6pWbewY16/aoWTjeGoGSu87bhYnqh7K4RdMYJh08hv3i8S4wujuBoQiU0rpSk0lOo6gj/ujxkQ8f84pHzTK2tPS5PFlmWXVFr7ijpAWPeqqpoD8K57A/XOV71XXnGunysvlbUH+tEi4FBtlXhDCKTyFzJjABoCMjhM3blisTr1ET0Ut2gsbUvv9oCOLuIwIULlmBfkwFeXKTMyXSkAVdxwotwcCKF+dI5MBYXy0R1RygzxRvXMphgpCFnG3OCERoJWRHQTCtdRNKpBfyXmAinvzuR9kG2nvoqomyuUn8qSnyS7pimh0hS6splIJKvdMRBL4EZ8oUldAfgtAC2tuuTf9UzPliKZX89uQ2oWGYJqmkC6kTRJRRIm+qC91gULa8SqeAm5jbrgKsKQcHTKDZqlsYe+1ZSDcjeV8n6u1oJtdyOR3IYEhQYSDNcMlFJS0SLUfMUrpTI5WYWG5gYlVqndTTReMrJSY2VciGZ26OOtacRUDFFM+IdWXB0B/GRIYdXoP9DFu0XU10nHZMQXV9p46AbZBN+Z1UEVPO3KydZK4d3Vajy01N5onBrzuxzcKhaMMTRSyEkL0Z2JdAcgWHOirJlf4gPxmdcZSSHSVSUBcbZcWcRf/OzfJC7r61Mqaasio31n1jMxnQ5UdILN6bMwA+84dyyyD8ikLU0gqHFZaEZMek+SlRswdS6dZz1QCdzQHDxOyo9Erf6rsNaom7iTe9zScoKDIJWKzt33DnB3NN+liULoHOlPPGZfTORKIM0Et/8Y5QUFFbD9n+jdJaMuw/I+0KbuhBZI7ubuCvL9hP9LIXP51+r4rivel0RvssveB4nrwLTKkKDQh3E7s+llHlSQ17wdN84/rtxr438YwqRFfs/niyhL9nqgZCxLurCWHlAh72kicrpVT4xpDY6YezwfaiDG+2MNhpD7qgg7P/hAO0peVugZwoX1iLhea6GgyHcv0zvsrp3Vn9Hgl/E0DNqK90cr2Mk42urJ8qrxz5Z1E/D+G8m3uvzTFWC6LokHSY2AZHW21riZDMMQHrQUDgi2RRTJekFdyGUApdWd+ri3KMNmNnWukqov4HbcLJCrtVlxVw65CWkbnKm2Do9eBOeShAs5btK/Juiaclz3gm+ezPjIHdicoB5FzNfi3XETlviPfVO0qS2Hsqur8qf5cU5cMs1Cz2oj44E6ZhLdRAEE/cZ9O/dwmdOiyswcRFApuZFR3A4qXCxvMOpcem8PUHlNRmpVfsgeqNJcW+2cKmSNcnLMp+0rsHevReR+BtYKFYAI6pZmNoX6XvwckPLtUk5LvQwNVjy8lPvqlSWiS0wdQqYQ/uhTg8OYt6DlSTlrYIAkLPSK0us1AasTZVQgK1/CDbacQxDapTVVs29bJT+CxJ1xmOwi2UmvtHSeVCWTA2CaAJxHtEJ0VZZCVfTa0G+TyysclftO1cHryJ4Yrlt1kdmMqMhVUPwkltTeLmUKdZqbZNf4NQlpRO/3EzxZS8MQU/xTigu8tof9zMIw8Salk+eqa0Pi7v0GZFdP6W09DdxEYXJGWfKGTuWF7I9hEMrPbJGqbsaGFT/0Ujo60LQvq94TGcJLV7EZ3u+aCHqSe05BZKSCgAypkaJKGYVGdxu0WF9y1ziQrqFw5fHY4r8sHiVI7sjt+/IJJ8okT1xtcVhITZOlqDoK5bENrgM7a/CcRoNAi+pVy9z2qRpfVLRAclQOAcwHReyA2TXXMZldwNZ74bdIfWgo8kFWzQydl5tL1YK9XUgXytRQF2lYdc08Cbxvqc1MlGbVYhDqBRdAKiFnwlWCziU7gWod63ql3O7Kj85sUrki4URbBmxXXmosJltX45cg0+w/B88OjExX81+Yk6FGYLTtaVOpjIIpjy8uW3diD1J5LlNMO1UDAVt0Oqfs54BnfO0zZdEwD0AIOf6XQnDPeD/MVtjrmWHEuq+4ugzJ80rvC7Sn/PVyNpY7GL6KJ4P0hdb++qiyGs+4RvzvtP02nh3OGUCjeqiLZzR29Id7cAP7A+pLesCBsTiuDNg4QPNV6Cc3QtDO9+nGP3g3jOnhHwszXfX/tkt1///cLSq3pNxRwl97AyJ3I92z4r/VJsXfmmsH/6rE2xeJwOUAPYnEGeRhbp03Un0OwXqrIQ8ir5I2GMj1YzPL8skYCfIEPCmboKU00co2uB+dZPd3cHXz7kq5IvlZGhenSSLnS7QRmVTiHy+Wx+Qt3/X105xKKe986EZBKuCXKOs6CQnngFq6RQ4RtVgm9VlEgH7SddYfmpwJoDvt/jcGIqrqGBpqbl82TDyEYIyWtynzMMrIOQOeocxWA435RIEk2ohco4qdPH/7dG5DBkbQBBIGATqRat5V9jDa4xswLOmWIseHBMCtIFwxl8D5fEVMe1K6YHlDkFcwnx6B7h7GH5P6Ri35Sfl4vRqNJx4qId2Gvyuchr3SKg2xVNcVfGDVRg99WW1riuRFJ+24LFCQ6L06KLQKysZ3NdsurYk6ZPfYaEmmJ1fcbqxPIOCnIS2TP0aJmHQo+g1uqkpkEN13wGWzQiB0cDBTGpxFI7IIf4npIvshaxKGEc3qD6Vo05xOlVZqjlNrENCv0WmbZUPd8s+ruRX+dow1KZM4uERTZ4fq5uUNzYA1R8cH8qqZGweA8hXYSVQgSSPbGpMRI/6o6pVPMAIgdFQHm+msYqxRLaVepl0sgq+YLEtQKEItVaN3Repesz2CYC+YO+EjNZVdkIpflUPnV7E5ShqskqrM3ftoPHRDc6QCVs2F9esCgCgNbZN8P7vikpgVdqbuyn5XfEYVw5qxPFWDOEadk5lgUX4FTZlKMpAjKCObLuHBLSlBinAg5Ioo86pAMb7zk9UReIlousY6JI01ByVN2HtR7YHVlBlKcnDQOYR1uSkuzVc3G8VFctJmxm6IcDGMNIFYCfNsE4KbC3MxbqcapmAqK6qBpifOHQTArpVCPmECSpWLXl0k+SnGI3rSFyJ9h3SYsqoy60SdG1bJMouA1yRhdk3Jc7P1jvKPSpnwuW+OhT9Cc0qOZmm8Tk1zpxoyQZ3+/5Cz33s8K5MeEPLzr0QX9cQfzbeD40Eg6wDoBF+Ry2oqfv/htCkr56/bUY4n5auCMzToD/AG+xEUL/RLv+ibKvSBGTxj/PfmUWOUj/xskevPFtj2Tg/4cBGuRmgryG6U+5Z5DTdM6eLFeKc8iLt+/LbPPT2e9fW/alCH6/Kv5RwF/o964uNLGgN1ufbM/Xk9q1Q4BeGgUxh2jJeQI18qhLp4hQ+zwtp6iznnxYlSVUEI/Sa4XEcP4iu4rYaXcnzcg5ewVXIiQLUHRP9ZSdpYPaYFp+lexnuuADcMTne7zMW2n7w+0aZss3xfUksAEev3yPXZn/zCa/hWtCyAEHxXPvvvZulDtpHL6RH8WQMM+UKvRQXROhR30Y8gjpEUPR8gJ2CVnNCBjGWoKO2x2pi4KeYvgBQwhjwyXy9qf5hp9iTQCnGZxUcCsr78wg+lh8Yka+69K61MGpiKLYz/VJlVeCYk20l5o5zFqw9/x4fvSEdANmqIzSoM/ufKvUfSvlIDo53JSPinQpH/yjJhynJTWPLIwpNTNI4rpjGuRXHVYlHJ7BSCmmobklnLQRjyyh74wOcgZFpDcPhccWNe2YSuVGGx5ciViXhZE+BhkfwJsP1C6K2lJ9FD90p5Lm5vP3vb1WJ8U6IRFgXepF9cPt5niqsx0OIGGqsFDuLbqhaOKN5adKAyILGML3laNAFyXrplZOsGr8yBZnpkv5hRZW+W8FdYNzEHSS1SobSLsjz1vFqZzVNHEfotg4ROVWyQKdzXlN1mxtk4kHUQ/9qhbE4mugNQjGtPMXXSB41+KN3dMykClDY5BTNnU2uxjJJMqVL5qMUk1ig/eAibYT7Yxd/MhRvkG1nm2VVB48xIWFegHCRlEM8tgDi80gkuGQK8dx7XrSaaDlMHItqtF1AVGbmrFwCNobRjFL7RcBbcwXltFULAE2QSor61FDfZJuQJkzon7zM+au0ZTkMTjYkBXtGFvSUi3IlE6k6lpgy0co0KStMyKwgN9HZH7X4wqjargcrHz4QaP5BSQE4YcZLas6F6o3fM0E4FuFG85AeNssCIuvRmZrK8Uq4fdXPZJSVH+IQ8jWoodupYfrXspeORQV2SxmpZYoXhsSs5SsLwa1vQ0NE4kzgJTLRegrQPepoq39+n3AdpqqSGI+VcqIPdzbQEkMY/+bxejOVdoSv1gGr82zi0kfurzWZgHoAy0AtqUb7Tyc5XB43rtWJ2eoTg6fyM/79gJkl+D/wnnoHNFZSNRCO/f7h8gITj13/glaMGPeDJvhzS/dEQXyrvwa2DYIVaFqj8ZkjjrTAI0Sd+x7vbeTtr/oX6qCn/nER1F/oICob1ijU5ftWndkQqDEv+m0TIWu8ZhYMdbhFwBusmaDcG2NEty0XiWgbcGnPIvKubJSWGOfQA3oQx8JFDUNTgOIA/X5VWEn9/tTzoDU+kX1QhnROgpKwZvVuXH+EhbnvsyYoBRZKqPC0fwWdQvvjjHz11pcoYBTS9nFTPsDJAs0YPZsEk4RPb/SIepJLIVgQTFeDR5imA0Sq+wpAZujRGoSF5P1pWXBUxmhx6LGtUlBQ2qESTnIEY8a/6MQMA4V1vwwDXwK11+fZS7ofM+oZfdTEBJezhKdaDWlpVh2hc1taG1IXdisdlBXR35HEikK0NsI71fl1ugsMI793oUH2GzvMK7qOKmkTrmnkwi6qa5Kw4OEAlSMrxVTEtYWtD8LiYiYklsXAfdYnZa6GHFrG8hsemLXdOhGAMdRUzHJW76s+Lx/ePWq3fYBC7KBwvleRH39EhjfSLiSaRbIOrqLTSpwmerD4MzJuRhA3Wes3J6bGsL4rDVeZbZZoUtCR28TwlbfRfSz5t4WUmWKwcNU2nWoLAMUn6HCLoll3hnx6C5OpZNMHrFJvFHZdi5ys5TssJ/aK34l9KYIzTQXmZBFbthZdm/uSH4Qnm6JtQIoQ68YeCWa7Go93OlhYjObYrl8C8kMEGAIFFAiEBySx5EfEVWhxtpwCDJm4vQHJQWBvs0cHarKdWD2ncUeAqOpBh6JLcH3I2DGSbpnVMVgiZS4LPqguPgidl1QQ6IrwKqSGfo8qodqsLiNKoNFL0t//1ggxwm4Iomws1EFtTqypyXZkry94HXBphD+0El/pBynuR275uhnY1rX52YRMwvlc/YElnqxPCy+n2P37plaZTu9TTqbt7kFA3Pw3eZrVQ8VlwVgK2914B1V2pMXrSy+wBBkHCuisAlUpwgCvH5UVVMi/lx9P0S+bMAijmCpI9b8//GdqA6lIhu8KcJ0ty7eoD/8tQTaPIOadfBcC0kkBcyOt2kP//4wXU7OTtX9UyKeb1D9azXvMCTj/N96usMn5JNzPLfd7bDPL7lv0DLd05lvuCmWl7v7d8UbrafoPGfgfR7fjHghlEkWP9Rx7fXCyw+53vDwUjn1f1vy0vDefLleGoKPecBfJlHO/K9vi/hKOh/RfNGqEX768S7/WKht/4Dth7K/gewnb98dzis7SOAGo1JKvUp3DrkV4d9ODtu/Ou1YKj6Mk5zIBEG0nFRTlsYHCHDwGI9MdlHuP+WXKS5WpO7DcuGu1B9PAPMOEnErYxpniAjuhHUU7gtfmBz0riKiyD+//8y6aOCIII15tiViH/tHbz6IHF7laT6JEMqU5g8FQ9xnLc5Jy7iYohkOw4ibbWCknk2tnquuY+tMSxBueAVaTviVaYj43fk3Kj1Gxo+HVdWfRN2ElG6CCh3JHRZpPqjOvnzkNQdOXjX/hAYiHUGHM+AOnOJI8A6kiLKy/O0ETEEx7fknYPvmmKGGazLtfNF87e1gqQsrla6yUlU2Frxl1shhHjl9bKoAjJAHWVIPJIyrCRS7tVl9kZ2FjaG2GkuyXVs8wCcnUZdkDKnkJjjC0ku1E9vBXUoLuzWzdynY2S2xUzS79JJ5JxKQBx2IRZbRiM+b7MG5zAcxvs9tfT9mQRPXMz7mds5Gyt9AtVD/1L5SCLqF6+E6pMHLGlyIXJP9KJyYYM6rTYlEjWvizQhSzYhpsQtDwGQTT9nB6ihF7TcKUePOP+EmSrlSq7oLl3uwp6NRLtQkO/nB4hsFMSqiF0mpqiuOyIiq7O0WxxWM9TWOXUgedh3M8QEZMFlnzyGYkU+K9hJK6uKiUqBQHBg9rexzLx7cHzhEELIkVH1iyt2QHYg5hJxzqa5bLXbjbsHcbTIHTohKQJBkZQB2BCkWExtFO2DiQWpuhF8J2w5DQS/jk/nyJnymt5V7zOwY6IijqVhTdNahV6lztGKq8NQhWZQB9oXLvo2d6kUlJxNs90AHHGc8FfFPrkLD2EuxHnX1Mqw8UUt2JXVjbaKPFQtemUfMWg1K1Wje4rncKUWQVjCzgiXySiplhTbaZQ6X4dbWvTzO9YnwyNSU+OLsgGx5iaeRyHgdPVmDfvn2ZC3ajVnx4TDK0JFidQQyoNUFNQgqhfdeXUEGWdQCbsCEjTGCFXK5PcWL6lkCnlZDP+kvSABvm6nHX2BxTLf8oYy+8Kwz3e/6Nf/HYML+Ub+r0ekXCF/C9sTlC+heOZQ8Kv4Ppwp3LVHKGumJnoGyFbq3GEZV71fkTq/2PBS6W3/Jqjk37IfYqC6zRorB7/yL/7o7/q9Ucb1ikGI2r+rdQ3tWvRs95RtmBVjcPEwnMOd4fH3p5Wc7imDhY6eJlRJTaB10g89vvRbK6Xx4/S4z6X3I3/25aybvatKeEnMj2Me9bWF0HURThv8ZBUd9VXdTnqWD6A1EahrcoVac7R0pf/jyhyvimHiwqOqnU+YPCf7TzavXryzfIk2rKj6wNcvA0MZJtO299K8fH3YOCXTMo3yzENjEClVKyCKBZHK00gsb/A6S29ouBVuWPfS4ZGqkotMROol3CJxG+xRFLD8fhuW1btsVpAJ5iS6rLuVOuGWWR3QdTHRgvxnGVZfCUkoZweolmqiRe/rZRXBEx58PHjWQypR9UZbKrb2MqVlERvoETCB7MjrtlzlXxhZ7Kbiae1p4FFc+hL71A1ag0x+EdOMlC7abaDXCxRFzptwHU2Ya8YwzduzNiN0jNJ3KBydDMxBetxNStCVEpJd4EDEyHlYYgE2gLeakMQ0L7LUohQe37hrlLeOl5BgKvjo5PVDCzBVcT77UkZ8PwURQsnagulydLxzw5bVGa3ePItIVNcw4ZkJmx2CCwsZtHgmXWeLOtYC9OhhZRzMN1XV0SytTxVQfVr8BWhZ/WNisE5TByrUwWEaaCV+SxAYFiGtLpWboh1Psfm3ginqLzz0Cz7IaSm180AvulLJrjwh8IxAa2A9FB7PItP0PiXhyIhcpXUD7+ns4WEaXav7r3kjf9Wv6RvlBmzrTUk0M6adgOEIifW4gyzDV7QWhQvdXPAhjEAMchzL7NATt1z51g3Yq57wm/O+qWhLgcs0EBh3y8Bo39SWxNwVbqmBSGYnB54xO2FSzr7Vu21SgQzgUIgBj2bKSS/INVMybNKKYwwsOBXBTmXE+aJrK5vlzSoHXKFSpgD2BR9gxniJIIKI1zitfGqLMMsBklgSGxIy5CuFkMw78p9xgwUqDV1UpdsiByr6sGpkcBMtMr8lYrBhAsPDgrOF7rRNFu2eoo33EH0qkuTDMO0sESkU3Zq3OSU6InpmaRRtH6NB2pJiNh1t5tZ3XVbzdrq3kP9GGaVVuVEyFIspA7t2luZdFzPFDkmUGN5pzDVKrkaMeN/E7htmPc/XM876QHCOvpA9Ek8/9x75fWQq1/57J2DRb8I+Sq9nXSUjb2/Kvbn4xVE/tM/Y+i7OPQU36Mf0MlZr97fKUAvfSFaPfbBJkN0jz/zLdHKTnoIkjvT815N8TkDEf/3/u5/8ts//fzJ/7I8KnjnxvKt+MH36TUhWVfjTFq3Ua7emAa0CVYRiqFZ8udaQmiSlA5bvFdu3y/r5vDmOTwKVjQL3CxjIGmLwTcqc7mXpbX1FfDaPrvYqN8e3Wrg/9VDXoaIf6l0ByDwpQsEYFPdltwr5ek6hK377eXbmyji1x8PMA+XHgzWykAF4MEsqg995vNPzuJt5G5qGNIPMVSm7nYeLrCnJAO5oNQ7kJ+tL6nCzpUOMRKK84kuyaLFj0dXDzeY44SFbIGlFaObp2H75PDXKsvFXFsKophVGVhzBbcSOKZ/5tYDM1c0NFzjwJLJh2HwSypElScx4H/e9wTqvWQtpsU0BZZ7VFjhd9AQnQA+AX8AfLpDTeZBc5sSdFNB4vMejckjXITRVFxzjLfZrtIZ+7EH5DZJu3KO35+wqGfpYhfyNjqUYuWpI6iMxQBQkJJE5N25QEzj5nYMAWwJM4R5NOgBkytxf32D9ZjBFkhPo4be3ZthoClu15S2Agl6rNzDJE/aYCbB99nzlbrKbcpE8hE4Qr9af9dv6dXQ4AapSg3seUG2kPsHXvS5YL74xIS34AZkxv8tjR3gGKzHOb1DrR0GAcVsZSTUbnNQSHnrrDAbF7rdVisPFRL63ZVGqNEZIQ+AY0rqf5f2Eexzia/vaN7MIV9NUZaHKkWB4x3UoilXzz7fQk1bDRimyXrk9cW1mo7sd2tgj1mrCE+sLYPAh/xzKislw7L49I21B0LVyqtAxAXTTQ5gixIga5PppeUNTq5kEtOCgpgU57zIKziZ8gkXihGayelMOXKFqiIFPrNCIcpkNsEidCaIUHbRy4dehj99t2aZTOmxL0JhXsJwGDsIMsh4wBHiCUwQJy1kVvXeaFogIgrZHrJBy6GiT23epph3TRaaKhYQeaOIyfbx22yXkuRr/zME3heASsVzmolGg9NPfw1Oo7p3/3e5b48GdfLGTtQkKKe+q9sm9TyKa018ameyDZEF/5Paw8jKvJJnUzBVGjIgJou8Lm6iYlOTmRrA2vf45TwfUDCGPUmfpbysxv/BDHYMTM9DIu7n4V1MpPvlaOnz42+/ccJwCn2hxdKO+C2CbkyCZd4BMEYWzBTkv/gHdvwaYFgXQE/iB2DIj6kujzeFX/kFkCUjY2GufAF5r3haNP66K4Gb0Bu+t/xk2J3t/15YGD6r/1k5ClJCX1HIeYxIryXCpRknRtbLvNbKDAE64Uzin07Qf3WDxMGE5FLurzBzEIZtmDGah2EkP7bou2aHfMGgJvcHUNxDHPYHZxq6D3AgRMGvB0FTxTPnW8Z6/dAd3H+s3BDT3T7tIJeWdQSgcJBrLd4ciGbqXxcvQsrV/7B8nRo3pT05ONksQgghj4D2/MUi3x/pxWnwlFCHB8RE6LJe4lYtsRyAVqroHXHS3ImtMqVbs1KfCdZKnpx4Oyw18zvEb9IwoY+mqkufOY+s/bB8lBv8F8v0Z6QwkR7ZBTO4Lo9Cv7FRqAmUyqpEK5f24QKxONdiNgJbMBxei7pOj6t52yHMACNYzPmbqh5kaRof+DO9BoMLATlAnf3LnZovfOmNjTzzgYYn/C246GN8h4GDNzZzrx/oEuQDsxrUE2kauKnDasjlKeKSRVKhLdca1Yr92zbdicd8GA13tZREapf0gSvyuzbWrGvorF3MytlqdgqRzftlpynn0B525gsVNzVCk9VbbgmF89tIKeOO18BgulDQI4v9YbHmuYBQRCO2RRx6m6Z4fdH+sCIk8VEFNCRS6IqMjrYL2bgiNa1niSJb1CY7c4wmtrrxXmdtxPPJddcsUyKuEHAjQ+eyxBNtRlurgYkJxffZe2SWEex2TuwcV3jaSIRcMsl7pRcjfV8EP1IhKaSH5GvWAosTFXrU5rFW7Zwy/ZEok44YaXJChJD7ppxcgXdtHW2kNnvt63KywLOyrnK+B7rO9C21IELFgFZtDP2afsfxXdTE9wXBng3ZafhaegEypxFwWaAg+pRLHFDRkvQoQ9xChDMQgjgjgzZHOm/RagxzxFZrJStPS1EuHKfZ+b5qaUaVl3qQkyKiQnwUPUt+NMkGelj7UMvqUoSr8uKTyYgLFOd25eJmuKnNdNYHFWXTp4jEiH5F9pcCqM4G6dHImtDjV8okvESLPXM1vc8xgr+4qYYqulY2po+Ua5QPJV4t7ybRrvIsxM2wU/C3a9XXCOECV9FSGAR5lJUELEXH9KsUOw3IrSVM43xMhWssLxcq3snL/471bMSfH21mQz/KNpE8lVMlrj/zY6T7/ivtcFyGsbzBqp9mTGlhOS+9AWouI+NwITl+qOdZJN+4vlVQxnjVqOc8g4BS8wiYGPv1BDw7PQJ7vKfd8WX89AevnNcrzgugwvZfFqEz4PvOzOc1YePSKvtOn4FidjqR0KODAouNfV7C+jpvm2eKwomKVquT8c4WReYMcrRkJmiTdIZBPOx0OFzB8d5i/0Ak/TPu7vKlYGtRwPCCRvC8/cFgGJsQXd/4ZrmqfUdHcxSzClagOQydCcMNCG3CzH0N/lX+9q3Q4MLg/0wp3/IjuD4DHjHJTx66B5mOLnI5CLU+18GMRwOapUxmLrXIg2GvHIxv3VjZnzHu7SrOrQJDwN8veRadnpU1mkejffKBy6Nrazw3M5zDYPHqGzlOz3sExvELobdY32grEp57HKVQ71hwzhEWkV6T0leOpY1XCE1BeIOhweD4yHWK7bo3viNKvWb0tpDDMYpKjoIdi6CONF9ysYda4GEqpUi6uZmBESAJnixYLg96FhgkZrwpWqsbrk3uCQ5NGLbHmreOJLeC4TVL8DLIl5trKN8tHGd5cA83eVXua+54KMvXzgq0NTyfiuQNuxWQoxNcykATA+PtJzzU1KbuRCixkbVg65zLMNlkVvVSxgoDYhG0C4HPa/0hYGo9uBCMc3UY2y9t5unF4IsIKpe/0cEVEypw+lnYCCEpQloeCLLlHUixa9qt1kbSMQlOM5usPdHYTIpmqdhzm0DQCN3wg7SLgrZ0CA518Uqft8VRlpTqPQF0m7IKB7sl15StdksM5jQIQfM++lOLpW+QHv3Xxe3BaURFsO/CInnQU3CcDTwXNbjSJsGAK1TbJQNRfVQ3R3Qw7cSjS/l0dAyV+ewgrYFy8xi0e7yRyA0wFQJKI0uzeqjTKYirZktuOi/+cOuUW0EpDCPlXHpT5PxCgEhkpszP0TNpSZcYpp6i/lYIZv9UhxNIYLfC94DzLRvGz9BBJ7g0y2xlvIQCutrRotivDqkik3a/xpicFrMQmLZLyCfA9FIFHKrBda8FH0IZG2qzCbpmQdkEXUjrR+NFjTdNvA95uxOhNASMeb3Axg96q4agjNlwDAoGr35WLurN4qNnKMN+BZQZLVLmlu0wGgSGuYgne/+IED7sxgfFJUCOkN5BIVXL7Fuu8FbCnBbLYJJP6HnWUw7/CEy/R1zI2xf97Ohq/LueexzL9cPVwucEMFjY3w+xRLo/dxGdOf7Lz9P39fiRV44xfMkPGrh2oeJxPhA+0fEN/K59GT90v9wth9X4xUjQL8r48AZc42Qsj5bLyKn622Xa8VGvINU8gE4gGv9yPC7qdvxgN4Plko5BNv7hH3z3OBj4v2SMVZfWO07laG98xLN+OBCU+sqEqQpM6TQf7dZideg0y8zb6CBkkARFKlkvBVyf90zzgbcAzu6u5V5dHaCrd3Pkb41b+hSG/dkQlIHH5gszy4qfv1F0ZOJLpdzdwCD/4yf0hMFquyG1vzJLoxlT3x1lI+t7/0lhRimA/Nm7SK7f/Rd+7k3lWW+nRn3wIKdf1evaCeBHE0hygapmcZkSTqJyp9aIqGzk6NE5mHGIyzpgvY7fIVoXXX1ygL0f9HZwbaWJkUPc1CEx57jlAzE3Lq6rC8q9AiV84+3XVNijcrKljV9ZlzcKLBR1LtWv7CBXC28UX7kZb9fDP7vtFOV7v69sD8vsvS88UWLNS0aO5eyJ5StCARav4dHUbC5QwkYcSEPWvrF9Q6egBk9I05UfKWTaXclxNHMm8EFUfShSbNaLmef9lCtSqwe78lw0VDE3a67tBzLJB5o3ALR5oXybDj6K+zvXlqs0Iurkk5X0GvXMr39eRLjbD/GFcn4CQ5pMc0pIRqj2N+ztFNGq5yUhhIEkFFQVw9vilNzFO7VNKPAuJ0gk3I8Mcagh/nVDn5M+5GiYD8gUPcKxRUw19FyE9sES0JjJpN11tWFlzHxZbh8sQ7mtmzvnH/l4lkXj3Rz+DjSrLkbEMdmo3KaowOfVnWOi8oQeRrnPS8xOFgVUNKr1iNjLwSZPbCMuvbK6d7bpFyagHNP7KCgpq08fV2GZC9PBDhWSjJ23LScHeItt9BQHKjXoFOi8oaxfTcILtD1fIKQGBcHAcYagGwPcM90tyuJu1rAJRYizxcsdlE9aVS+s4qt2e4HrSaE1kOpWFTjNhSrSKElkgYh9NFgTAi1jE3Oqra+0MbKqDy4dXZe4kK8ApqLpKgU4JiO0O2SxLlu+eaP06+VwACLkTaQocy8jgESVD6hQmVI0Ax1DJ7eHtmNot21h5TH5ffCUTOAEZ7cMT+JwF6nQ6mSYMmFdAd1YuAKCCYE7Qina/gS+MBgFoxup80OVxAc22NdSeQz5iJZqPq1D8KoykiyuoPKgHwuz+IB3dYqvUkRuuVFLzqT6LpYa3KwyRsB6b5aXuLnWZFy+d3n+0/PUsPGoaMET5/KSMeVnM/6NsE60P+/sCE1L8r1gZ8+k5o7lPy24qcY/O9OYH4N3rebsLwQt8sdrhIz3S304K/OxPD4uV6invx9gL8dy8RK7m8fyeeF+J7fny1VhvV9EDvOmGZ8JsbEs3fgNL21vHwLPOvhKV43/Tqb/+pdvdoGJf6VNZsj/L8jaGlG3KHdhmh03rTDB+cggYDwQHkTw7OVHEhsj+CIng0HKQRe45TjBxkwFSR398oPlWx7IZ/0oxmAXcmjxupdMH96XpnBQmLAo5WvHmiCYHbzJeN+W2+WLEpzvNB/wkvfjJ6ftGzGKGMkdxLzWcDs68tzY6xHPMcF/+88NNrMizEMT+MVyEOK2br72F75PTWdQikTfZa1CJLxxR11do5dp1DPDRonpTTcZgBScr9C7D0R0euU0+8jBo2EV/9oBZ1XkuV8+juMb8kMjri9UYnsySbBjOFNdv46mUKPPzF4NaTCDa2tL22uvh6bZNPNv5PCjKPgFbNsmxVlTVvbp1qSHl/z23wA+g+Vd6z1EvulzEEr51u+c9heiETdVCOGziSUln0uit4pd0qRQ7xgLNHSSGJVROTFSAZBjCIm4WykNXtj5Fq08fLFsW0vlZnOoAyarOZ7akH4CgImRIYTgC+TUUL5g5cQzJ8h9dlBHTC8lbrmal4VO3rBXVJrZi0X8kWa2rEK9xRDsl4zY04g5sQcl12bTn7q66QruQTVQP/mHOe0E5orpHk+sy8y142SagyhybhAqnmfGIWkvVWZjt51p56hWB4RqtCb9vEFgRbcuOUdwU23bWTkJgnqIeHu04mX9yjm961HWNIMYIHsQ4cnRzhsvMghyGAT2npDH7e4xt3RITI3mV1LbI4FUKXs83OSKvdm612WiksqTmMpnNNqgw7CppigQV6wvFcEZPV0dBFsKmbjwplYtUQMqQRbjZavjq4p03JmmFLZodCwOI4ZUN1zD2Q0BU2m1mykU6bcSN416rw1XiqQpw/EQQXqSAM/Qy0miYW7HTuWeycNQc2rYgJPGtExrRLOIPUOhNLz1iHEuV6MXk4Sy4eAHVgSWiWJsoSCoMe6UFNppZmspbQ3kTZ/0Mtu6hlkkZkKasplP1AQYE4XODVIYTDcn8kiSW5wmfbfaLKCgGj1SydegS+zIwU0EQzwpdkqoCBOIJa/js9fFKp1dKeqdLqFnawEVp9PtI1VaZf8lrliu1gYrrylpEZ4z6UbansYoSTJLgK2eaF6Ou5xdQ3nIaxZYM2unONrHswvYtVtXQ5Io4G2Wk+f8htz9lF7v/AH/hfSAkNsXV7ZznwsIIPbTN2W8a9CcfliPrad50v7uxi+1rx2tKK+9YAHAWB6so7j1+KPPy3OodGv8/HWP2298W22tx3OB5fMLpV/EGOirahx/6qUQtjxfBO/tx2/95ldvH6zQN9ST/7jnfB6tL+yHSvsc9UZ2P9ewNFHrRu8Z231HIagv3tq55QVzaTp6mrEkmtRDDjwzguyzrj9dvixF6Pq9q1qPfMCKoHjztQv5SJt3VtjvdOJ2Ux6qxDLcvFiV73l0zwMp4L4+Q51YI5BvBaMTJeBNgXvK3CLX5rgJYfPuqwHg8ZVy+9Wnmkcn4FXv55NL7tWXaYXYUI/YmZad1Bq+KesbGjcRQeGEF8jYa2ozMvlQ8Y7wKc9ef1eCSPq0H24CYbsYFhR4D9QGOD2e+76cxCvRXFvulHNWj7qwL0fpJ31osY9eXnid90FuqT7Bqi71gVgY6xYFjxZcxCA5dAmzo+XS8NEmgUZtTVnPwtyq8QsP7XyupqcmU+zUFfC+aSgbITz1rhGUvU3xU0sL3Bh2CSw9vjwSa4w1d0NVdRArxOTBRVbKQ+ZIvPIdH+XC+4QOsRdmHarnWzw/hwoRnXG8NpxtNH8VCpIWLkKzXiNGOKLkQ6tR5eBkkecURsBRul/fUDfsFNRLybZ0UO4aI56cLEF59AaC509YiKq9jqAk/i5lz0EArgRZO+/DdmP56hTa0mvRAaEHAqhmFePE2OgHzul/gFY37ThpmsWUv24HYYrmcFQRF/5qQbKOf2cF383icMtqH7N4JS6GXhOxVEOD3DSLPLWCEZBn50m/UHz+6Nd/zEHbZeRQ79ajTM9UJfRzKGb2g1LQgRhroeDp+HJB5n23IlQ8dkGzHTPiHPVZFvN2iyQwGVbL3dnT1TDQTXsnTQ07mOfBDP3WgyO7adefe6g9zePFsSUhUTK1kZKN2v1Umd65OsGa+MvCM9HOZRJJ2EcQ2TscQJfmkZo8JdxbVS9lHaiqTchFWqHtbbYUJYLxBDQIYINJZsv20yOeNKdBwRsWFrGSt2mpey2Lc0naSyGgIGha91MDATPBygwTlJMidSlMeM7C9m9FCF01yV0n4QfGJ5pBMVPzdpWRWxu1Gv4DOLvztJPOvgdVleSFvmFeVDmm8foCXvW74yGURRXgtdu3IyPJnZFuwa6tuvCdQV3LpxW1s8v/etHi1LHcPDtYpL++YI/fCEHXVOOqXS5WWof/zifw8/OWfQXf9UpTHuucv6dR9Go8Zd8g5fSPg4JPR80eX8x1HnGDvP/s8xHRj68ea1SPbP9rU0+o8xogjwhunS/w5ZtskBuffuTZO+cn/Xhi5ht6BieZFe1D5PkEXl3xnUHhdXRHViNaJ+3EuQ6WPI3Cx5NSQxq8XoX/oho89LzMLkHqsqByOFis58uu+eGI+S4puXdBaP2ZT3IfuLtRbl/3mfJyCMR4P4OFlb+s7wFNPE+dcDv+vukMZyC0vO6XOx9r8dgVYI8PyfaSPBAYBQ69Fpg3rJG7l+TjsG5mdmx4Ly9YpklPGa9RzbxjVY9JQQO2tzujYpIYIpG7SaQjYHLsVbBzu1auLJbDLNAZVm55K9pztJIHRonOAj+nXirRh9omi5WOOZBT+osPeN4+JmkbHR793g/yaxEOV9tJpXHYAYlOIGm31ZzxNEggag5wPtAyYyKXYvasJzKjjUt1uJ70gRR0KrfOXtbIqTwudXZCtoSwG8GM18LGyI7KNdlRM6nLUYIXtZQJ4eo6azgp5DzlnsPjsrxeanYN3mAjoANq6Mkh8i596VV/sJjbLTHJ4dYuwoqBgQqhhngTnABt2AehT1bq8FLSBmTTEa2Cmvc9rM3Dn9poetr74j7aZGXMkAol1DiR+uhCiynUKJhCJ71noYE3HEwJ58NKk1nuxj6sFay/K3F3PLzAGLEb485RDQ4k7gZQ0FXVcqGDt/JwKWqHpQJ5hy5bobvZPFJvV6mfsQhDtbWayJ94tWfK3RJdReiSGinePPDFByaiY9QJtUKTkUISy425J+l2YSKRJl12Q1ZFh860CLTSXsIGu75mn8gqPwVWliwGYukYuNe2lqG0HR8WojjVlh2i5GowTgiBrFBJawAyCU4SOm0BEySAhkkPjkiao0ZV6kUHOqYGRdFJeIyNXVlomqQWF1CnqAgHmRjGHV21vqx7C2ZLMj3K/dGIjmnggGbjbnZHRM5pB53qU1c4q0EvKR8TIwD0Pj03Z0FEKOrU6V55NQbIrQrzj5caE0qc5ewKFO6MOMcbDXvcKIXw15mjmJfmchKgqDz4WrlNVLXsTwpoOrlSJliF5Z3e5cYDkcF19EQa+3SVx7markapvYn0kkNB5ftmwtdU3pgK4Vg+o5uU99X4X8YgXhB/cbxZhH1vKgm57Yk/vk94Pe7HN/9mubouR+PPvnLCLIX8/NfLdcphs/JY3unCCBzGcjtiBp8HtOKcgScfBI7x92/r8xhX4/Y56XGuf9JH4vkzRWbNOJY6OEaU8zfLx4PHjH/i579yb3nYjA8tacfyuVtBS5RfzcP8YT0g7GG0Fcf+BeHIfoCadYnUE6kwKYwxD41p0ZPGhtIovmW2J/jAEool5uH1gtx5APNdPzz6NSfpIahCRp/PV5uyQFizzonyu3InuP/sWUyFwsl2CylepfzSVwv8ov9LrnX+Z75qN/f9rQ5Xqf77oqNVul/+Oy6IL+eUq/5mzdlR4xM26LnjV+2RLYcXGJbnVs7L+TqbwMyUWlLTMIaqKQEdRzXqElXWHG9exBJFS7QKIvZOLV8p+Uq0/aw0v4+4pLfuXtFK6Y8OF/Vxd142x1HY/e0pLP8EPeV+cr9bIfbvlvm6m8lqhBX8xqOwk2QTHp+ESLF/CR37zZMCHQeiUQSqdV/tNs2wl0ydxtDaiO82uamgMEOo4TFoA1XN7pFsqHr80GOjSNzEC3ibhkLlbyUUSXKCc6UxqIOGK7G1bcGdGYlW23JmCTIU2UXX+UrEMWBp4J+osuH0nE/sqLzv/iD4u7GObui+PZS0GWT6pQZaSiTX2rhBVdvDsvVwHZZgRCUM4uipObFVL4IWHukLPtXUdUXnqCo3TUwip+HifJndb4tMIJQDH76ahC7UZE1WG+x4aEIBWgYOdP7RCoydP34kHXo4GOwAGFbicNo6YGtpVfgm5DC/eoeCzhCbSMCHqEUNa2HRBo8vOBFqAq4J9F2x4Lt1H4EjLmqI+smM1SdzCGiKhW+QKn8i63JDmXGRsyz3x6jhqQkk7qfUiUJJw6Iu2RvNUq5Z/i9P4vLGRkQ6qzgFgzBbcrLSXH4CFjGyl6zMN6tpTiNS1e3Arh/EIqvhguhEuB5KPgOaiRrK43TFyJJHljJ82wRWis/ehW2OZVmku5204wImLO2sYu1pYzc0iFGu7AFjgFglVKytcudWMaHisudZlc84byVUnyUnOssxQ0dBeGZIE4F3FuYtCBGrna13Friqwgjx4ZnKnucvaTKeBEITfAF3V9n7MBW706DdKjVEt7URIjWG5+RbPDjBLhBz6T8/KkY5XVbyU0G9XPkDJwWrvuOboYaoS6acNWdsXjTcVL52/AoftE5qu8G5ND0AY+qWu0UOflv8RfKEcB/299PdrhEZoaG9swxynjzk6Pdotgb5S8OkBww837+yXYT9n5gbyx/XVq7xR8qj2WLejT/78E26iPn8GfMBIRauvr4q47VSvx15xjBegXwsw5ZROnojWNj3LxcWN43lk1r+NP6Pb+W8vidaR6ZFY6yNn/x6fTuYx/jv/+aXGSZj+anyzeWjZfznf+DL16+vy7+uuwHrCbhvR6v2+xVMZ6nXhL5j/j3KDyd4zLlz3gBfK+2uWMHjKL2vdTAZV6G7roaQafcw8Mt3318HDf/hn5G5X4WYuhP/1L+3+bkbDXnUlte9/jK44SvXD6tVMMVvYUqs/Ec/OmASVeVm6Ac9e+Y+9wHY4stlsYCVPyq/KZhJWb7yi+U52wlFm/5X5RntH9TIWB0edBjHbsl7ey9BqZnvoV2IVHJrcWE0gP7gUI7qJcZQ2W/jWdo/FT+2NVporPakAxE0siPBb2UnXNkcUlLh/CJ1nF6VE4MmplnuBaquHpQHrwNHU16hawP9b5tZ/5AzlfcWqCSlfy74/FWt+sVjOudEhQD6qPz+r078WaFehFWFbyAFQsmd2FXTbyY+wqM+i8Bd79Ee9zqwWx5E4m/AfrhRN1fmVayE16qnGl7JC+X0vdRtHey89CZHZr/r8g04os5INZS7D6QXBE5XwMxBAdG6DyDmbB1+nn0Ru7Uo5fnT0vWPgmAi6hPodkfTG6W/CZeU5Ki76uaFVd6BgbZzFQxiMdJZ5D2eRFWVWkKtvLYTPH2CQaIEXrWo9MnkckFFZYTUkzVDlJLpGw3NYZmdyu6JsN32A+4bif1rz5zeK/QWm6WhmpDyOKXKcB//OL78iyvMaqM9dSx4ePRyhzpwK3K13ebh+hqSUfRawRz1acr2IaXzv19vW9QOHTJFgGu2OteZDJ5JLVOnpT+4WCjoVNMMkE9hZu8SYSE5QeMkDoQvuLqf8Ea7NDDEgQayh/iRJtCVVVjkdHzx9xuGOR8eI0fLyo3FEagVdvWdFWz/SNdtIP4gpkHHrp9zFBK+kKlbcvGIlgSdSRPBJbIXWWJO6lV3WYHAU1SCAnp/kv36M2pIp9+kBepTQ1PJ9XRJvkMCGT96cNFzuXPWw+nqSgy7g+6Q+r1TEaWwyKlbdm6LWpPALTO7UApaFF1YGSWdBgt6c5HmrL2QgoLEFcsoVtNxbxK+k9aiIvb3oDBvds6KSbnwdYq+JPQV78ZfQs/kEZGwFAzG4KQ+c6LDpapdyVzDUKdC97sDK9MdpW3uKrTxtlHe6VCEgrrU+dRvvA7sQYYJ7tGvr84ujZ7827v+GRdQPtVMUfvWucrdjXrXD5kmMTFeSF+pxhA7VL+Tm383BATz8uXuyemsw84+hy9rfcDBoh9/6rPYpLPxt5Xr+HfZ70dN458N3n/18fYfFk4R5LzhMHcs/8USxx/8VLWs8ztDNev6nkqijZ+MRIc+T4BT8XjPnNH45CpOuNn40+XWcVm0Y3CP90IyjuMPPCM4y93yKMyMHdxbZkO1r1HbdvU9wkDgqG+NTPsIrDeoh6VnBnou4FLgHnOKllR0Oa5G5ajLd5Q7LPB9m6em6/+rv1W0E0DZ12GO3PY3BcutQMsLVzkbcLaALr/Ekf6A8Er5bGD4b/y9lJTPRKfLdYu7v65mb0C9EM/RfEMnfz8YonNPPPq271F8H1ZzPOIMa964BxO5XUDErufFIVtJjxnsSfI/OvvUnzRsynO3IL8pOUFneFVpVBKSoZo1JiVVFDloGu85vpEw+2kmt3ViAJt7MX0CGzrU/6C9dXPdcVQKzLu+xszBKV/R+WYggFpUHh8iiaq+4Mfure8DVMDIiWIOFY7q3vEB0+XRmy9u1ReYve6Vbq49exKBglK8JdumPiSnBgytl+1ZXfuI3++GiDgm+NwLBYaJ3k5tRx7cY2st7qR3XlzNwsY9+lhh0FavK4kyP9J2zwzMG9jQCgPpWZY2pOYUXf7SNsbuGdX6s4DBurvNK/IEGfWMpjPaQ9df6Pfa/ZN0qnaZKkwtttcFFUzql5kWTKGGIYnv5XeFYCasgRVKnHo/pSkCMLpKeoJUmonfi0Im0OhTuqpHep/VeLzu3noUjUHmn8AN5+VaDNnaM2x8W7Gn/1kzFqEdNs3wUE0diByCnciPU3MQRhK9JcqGFLTMCq4EqBe5tCzDT+ASF2Kp0oi9MAIpq6//6S2CAcFMNX3Vc6q/Xmg1+s5XDAZEWokgyKq2GiyyamSzh37DLNsgeB4uWZ56rVvSD127tMp4cVCWayudLlddZocCs0iTApLe+D5K0mmiyPl8RRN8KSVP7gaE/JsMdnbz0k8GPwNTOr6z+qKqkWw4FSqh5n2pp24mVPqOgCKm6gipDFAtpHliKR59szqfoVjBAgrfTRHFqfy+zFyRS7fypSYBStzM/U0p6lh7aVBLMrHhIrj4fqPC6dEOZBfZTpK6QRnsKwlXxaSarw6rndwrJAWXuvFX/oGRaSg4oYu6HFwUtK2XPS4fENLIIbtcnaOQk0IdxvaXQA4KuI5Z9UYw1af9TAVksYdkojxWuVYi9qlm2aP5neqi1TO1mpGD346SKm+AzlSQKtyEhV0j3XCbftlST4g6yE+u9YC/ScM05SnrBPlyVjw/e3ox97o7bJPxe8rF3cL8wNNbcLDx5+5L4CrfEvn6+B1GxPjVT754cYT+oO9lhNz+dLm/L7/4PCLNA6inxu83AsaPSl8k/lWQNP5kKMucU/TXypwPIJL/dfQBBLzK+RmZqsQPgfFxZc43evduM+K9r4FrrrVzlv9c09y/Jc7RVcyX884MNYwFlpiBKfvN69dUzaK89ja7n9zZYcIevvqmrQKOK7gSKT/103Fzz+K41HNtHPz+oNT/VdMAULiRf59OpuiFp1A1XwFV2CddtjoyNBp5iO9RG60XsM0jOUyC3S7eCkw9c1juzFhCF/cHd/FSuJfbKv2TxV/BjcgH30x8gg4FLD2lWKn/axOLAczhUuwEn0d36vmeiPDHen/GNd7Or2ztmLx60Zeb2BbRluPP0ZiqXHvGnp3F0ebtdFR89Vu9ZN9LMZe0l/pqrdUrHCwz+Sf5rdFyKD2b0g/YslB823Zz3tLe43bOiOzZe65k5K7NcMwEWyE1FZA95Xtnsp7RxywNTBMKeoMOL9uCpyfse27LQ2Vsyo1+FZTgnQl81RdywFo9CEQ89Ocn2tlqgeSJNDfq6Dk+lqkFK+z2chWVCDE1M/W9x2rhMF31fOqitYxVqWhdyzQC0nkut0QYV14upGaowc6wXxiarF+mmkL28O5Xo9AYm+hCy8wLBMB8Ldg5OLYZXPSxBJFDs2DEXLtOAvwVTJ+EcXwyK6tN8sRgZn3Tah1rGPmPtio96kfxkn8fZ68A7KYJCImtSp9YykeU8zTJgVnH9qTWS0iJb0RNXZj3uRowPSsO1hoyOU9p3jXUpDqof8KPWh2F3GdtkCgYT0+8a+cnTGX0mxtiR6e4CmhBf/rAa0/1CSFtXA2sbNoQGoesCFMfqbdswvYqPm5pMeQmj/fk9QGQ3YIA0bTlmmxIzhNKNKXYrS+5PlQYLVUSNUw9r3ZZ9hG5G/jKmGmEhBTqplCvAVHmJUs+MA14CN7plQiwCvlHFrc2kzrB7oDi5YQKdHhxg8SaC/CreepzauRK+wWOfTLgReCpTEGryTlITGVkT3aTdNOT/rIxJuoEIm+ozTeoP2DCnrPLKTXkXI2sblaH1dX51hOLkUGbFo05Lf8X2N2GO/aYNfzT4R8VWkAqBFP1fnLD90+pKRE7qP4dS06opmuqfPKNwqwcWe2V5Ezqx4kwjJD928L3fbUNcSxfY53VXk7/xcKRNCHv779b1cdl/KlSPhDEMH6Zt+smz+k5GH/yvSulXR2M5dF1ZkEj/+1yh3JCPpbl+fjFcvXuUNYRf/hujJK9HgAE+R3BoKHxJ5hGDPmPu6mWHvAi+7/G76mvbNfzdvz7WnVWjS9pA1U1/p+7cp67Fs3Xd4p5XhijUhNq3r9e2Hd2uV5ob1ofSdA4OjLTRSWT5pqfN6GsY6j+1WOxvv7GHGGU/OdZJi4Xz6gsmOCiKs+Xxa8t27BZf5n5j5vVf14e/CGZfNtHYULqG88tUsDL19ryCjQUfy9EtWyTKidngYm+unqj8CHC2WF26NPZ5Nvne3SR4+1vsH3ZvMfMw2QQwnKLGLTGTzCNj2kd4URlEVY2tphzJhbOx7PNkBx7QcFdY4F0sGE7gxo833NSVrutH5zYbb288ezNVenWGuMhDg8el9Phu27kkRTlF1TRKrqxn827dLb68NQIPoanYsWEMA5KNQDmWqLJx4LhzaRBAUdP0i7OBifcJuQB50gMKXIEMs3RmmK1a9DGYteljmV/1W6UK0qFiyd7j9OeDehywkoZ7dLGV+X+uE+/eKUbqKubg1W5y9KEQPbn0u5/fOWKxeZVTPbD2Xy1WMy7Yc/KdodT5aVhPlTsCKkU2o504vjBcah1f8qB1ISt1DM2ZVXaHGFtgna7T3flFovzfYPdwX5OMzL5NT7xZKtTIgVW0LSeRDli709dTg/XMgDZDrqiiQs2RXmCkxzBDgcSL5fHwUOQhacsB50tl2076NuNKho9IFilv3W8B1iLC1Is7khXK/SYtgF0jkROMvcaiiIS08vasO8MopSSKVJ3buKsr0pPMRCJjfJD6ZeNpVW5os8VYJf2msVi8RRuqbpshrrvOCeorRspf9End9MXFxragbxBWgoR1BX0X7HHg3ok8YAdecloSO+NgCGQYmfn6yhMtyspkLcm+so2DSQh0Mu0KG+X1uitwOKEF5rn/9M7iRpD0AgxeqUAgWCmh3J3ZEpY9vXOrZH1E70o/ip4adkmVDhNUNR5tEEZ4hsMfR5nbWwXTjI0KqA+8FJrCCRolzQ/ftWHE2SpOrhf1TI9C/iMnLpZbpEpjsQqYtfAnd/L5e9f7VEgDYCdKOzmKRqRQe4trHRiZKFtcvKrlurKVRT3WmsljQauNYHglr6v+B25TU1NoKwp7ZLW06PO8Z4w4jdO5f7NPyXyw65yni9VnLcjUzZcy6/m1I29vPwPCtvV2rE8vHGl7erxK2u812Xc3PH78sz5Rbk5H/9+mMIhokepBch1WYHLKOerQ1hg45/68hPOHYvn1z5apA9kfsPHFSIbP150WuzIXqpO8TdC2FTjV8LaPaia8cW3rxyuSj1+UNntf3jhuT28R5Le9cjxfrXaJQyM5SO341qPuNIbyrW8Y72DAICziPvfDq4+fXqaS94fCz26v00nP1d+M/eh1D/ebsuVTbn15e0L34k1/+ST0pb/irJJ9H8kyv7xv/N5j8r1dMCNg77eEM9H8gNWLJvw99Mw2+UMfU9zzXdD+h/Hq1vvPHMltY9qXi1WR5+YSirl3tFai/+hgV4+SCzsNILOH4kKmLSW3ppMH2qQih54YZcW4iT3SU/BBZyK8YWmj6ITEPQfY4qDj/4d9U99oMeirD/E1wE+zZF5n1SmJbb7d9wKXeaj72RxrPZn87QeGD/EXaLJmbHzMR3JWJX3ToI74srtoYymWntjpN4xrKsw6C2Im6OjXicXVSoBUQhrmlBNe+MP3GqQaPpRwRfxGjhHIiYhnIZIhcqjELJtY+p556yct4vlcHybk3atHG2en1ZalPrwtfMuTKKvnpU7anaEA5Q+b3XXYE760+zfnvvDiE9Dt+mjGz+0VtG1ZoiBPOGy3yr+8oPtjjXzpqxWNSSfJG6vBNIkCbp8zOhZyY+uC6xpHqGZ9qBLpY7bZSP9N/5CmbnK8hQdIElK4vtQ4dZZ9/NX8dUcaben3DbtdpW6mD7koB2N0Jf8bbWHoXqpyHGzWEja1Is5U6P+wLCR12FVidArSH3m7tIcoNz4gCOojQBlnBrqDs5xkXG5ikCn9E4bJYEjpQ1rRYRixpeuXoHRbw70ZShCfipPHUEjJSmumGqOyyY4bCBiswiByLy386h0aqPvUexCSqLt9kiyMDia9DMVvl+hw3nxhFvcKq+g0HiWhLbvgAbWWuCihHq7u9WP/qabHRLykg8SU8JKlX2i0aEa+ZRIXNfChfDpBSlwX7sXNsg7TgNQD2pMaODm4gEmq8jqKhu3AZ1GXWWcUJrKNlVKtGsLobEGNLXVfcW8b7xKOOYGEhkNqVwJO255ppt+CIydafiL2LIyY6LSy8lRpHxyyOkuB4mhKZyCUEECwAU92aUG30QouwCVIfUA3SFpMD/RyKvEwQSdQGdUk5WUVhoEYQUqE/JJY6AxmVU3jla9QoZfThe/Htkn1zCf/gnp/SlXq/FPFe0NGsu9V+8Gwxl/54eiD4/a8WNvvBpje3C67jCu66tlczCWHz57/smsDbteYfyTV8uThnR3xQkj3a8Oor51WQ/Q9UIOUMl1Fr1gvwf3q8Z3gh2sl2X8f0iV+kUQ/Mis9EL5j37E8CJdm/HInTl6AbnWKdJG9InT5eXzBd3wcTIMbmJkFg0zOy7fJz9482aBB10Jc/RuqIC3X8pVu+Wjm2fi9/FFsL/NfCh/cfESfRLFfQR2+Ll10j+b6VrxRLqwnFwZ2BRUr/PQvk+UowNI7KcPMYOa8k/KGcK1okHra4v+C6W8fkIXW36z9ngJJnqM7UPvJCfklqlCHXjfcyow7H7O7nAQDTSotoAistkRDKQadFtDjiIZ8UBePNQkRpl9uOJkpKbJU17lZudss2/i5kb3IOfdT8sfAINA8w2/fjPgJew0DzxwsozPu/KoT27woFzas1CY1TV7CwI8DE4wlHvTtxpYIVdovD+BwDHzGt1E6vBy54MOpu8m62NeU2NzBtGYyW5GbornRtSsrTiFLJ0CHpiF8h54kgK+HNXKLcOBtqmHdG/w26IOkOroQ4N8Vvfax59BDDp4eGJMT/1Ep0pBA/ER/+LkOgUh9NSxz7pQHGsAGk+dV1MRkOxOC1BKM8hsnGmAG2ZTeOdEerVHuGLsdXGkEmjBmB5qfT+iOindTKdtTZlYZ9tr0EQDHj2xHAz1eClt9Up0X/aIKJ+XSLl2GncgEjDsxJYwSFnR6tyggmNpAnqGLOx9KIbElBDVanD1ydBUpNulTyY32ralR4t33qasShhI7MypZCF/4M9aPSD2muoAG/mSz9KFkKHVwwHtXuL7cFn3HAZkYV34YmjIzg38J7txcknsIEDACYJWw6+SprtTZYpIhkUdUq3kAhIEiRTRfva3iT670E0il9vvsnSzowLH0T7uVEGKmcy0U570vuWVV3dSiJre+guxDR9m4WtBCkdDrzMdOnBmSBtoVhDoP2opmNC3qymtUG6VY5P5oUjD8RoTBEZV6iZoG/o1rLyZylVZrmhqbnbfLtL3xqCz7InHCPA8jsreeRr80i+YEnBR1qYHF6um9jOtNsNF6ZzdnNWyOgeEvqGsyiNxRwxTn+Y43q1RmqmqSLgRroWwhJaf7CRa7tYZokuN2WHk/+/3UroMI3XIDj8vJ0PlfX3E/xnW9fL+3VssZRvf+eC3hUiXPH05wB7fJVU1Rx6zTnvkOJ2ncf1H83taDzi3nRT29ww8hD7xbPCLBfmhUNdTVSNHgkTU2K87kEQ8c33jp5hujfzf+qmHq24W+U/KbdYDXrko904P+E7Bj0SC47jOu3bZjclJxkNsjWiPFmYZ3qMDvlMIJdXsJxDiR6iXrsDKBYBVWUp3RXf3aPF+shvfdK1sQoqtv/ms3K+wb85C+FoWnLxxfFA+rcNSI9wrny/box8u/W9dPM8zEIk3LtkcHbi8sm3LUqvKouoLuXhrrS3zEMC2quwOiLsXy3cAafvx73wtpzzwswI6X0IuKvDY2+X586dG3b8iOC0rIeaA03yLQKHlE7Gw4pt0zgDdQ3CetHOs1ie2cmluWQL5pJyccg16KIccfHTjEfZOpPjI7dTv2Vi+PPrld6LE6GyYt4cxzmGqaVgw0enDwTYjcCssqZg/2VWR6I6Vas0qrMv5Fdnb1brivNDWeBVuvXbJwXd0nHin+SL/8YljEtuM4y8XYqlUo6biuyzxqsXnmVvQUjKY16zL3VmZbSpteZHwt1pw+8x7Alo+kr2kFUEbD588jx7AgdCaGFV1gd0ZdTKVX4ytBUDKnT8zyLYm63JnYAGVQVtPx/MIKB92Udx+AtnrPCcxO3Z6M3Wj1Jw9X1TMlHbigtO+eHA1UQU7SSYPTFnevAkEAkKL+FVKKLB9DJfuttJAv9ftDqy0dlUBCLXMMLEqQUP58tQ2svVMlxFaay7Hc50NTmBKxgchKD3iRdsWxQjVLjFUJU57Wc3C0WqGqYJMHi4y07h3FFga7PYHD/IHOFIHhihFxBs+gzmHT/uzPqyuKTZY9SWEgxuetCh85sefnNXaN03UasZcGNhpE4YU3PDfbB2Sq6WCnOxWCxpXWGqc0Egh/KIQTb2Ia8xGgpzLNbHEKfXUwQqTaNBLFTuVr2hnyJ+kv9Qk452PNJEaEM3RyGZE1ZymjaVbV9fapOmW/u6h4YZ3bG/wIb8JAt1X0LY16hD8UzRJQDicOGFER0j0JaRCHRQlm+1XbJx0MzxPoWf/vA8PGX35TtYP92lbm0pFX2BIfKXeYWWf8VK5rb6YiNcQXprpIEnbE3saBymUNa3TczUlm2vNUFqQsDOkVUIRakmRS0yF65fofS8qTB2saLWKP1d2OVXZD4n/LYBkpaXkcpXnBkYY/3gI/zn6wc3vLe2WefdX7pa2H6Hk+1fL+PpvdLr+OpIi5PETGYjjR197en0+b9ADAMLrAbVOr9D2KL8/b6QfFHwlqq/2fAR9O3IOecDPOsD1Frg2vA+4vrk8DltzvD6U+c3DfiyLPxpD7VT5owE+36DGDyCVbXwdYely6+2C7x4bjtNWY2X81WVmarFXr+ZM9KRFT4XmQLsTeu+iLOujG9dOytFaDLsOw/EnQiB2yMntw1lowe3X0SjCCnz4+qvPX13qEAK+KFLPxMaY7V6LZdwJUdGs1/UP3jEXuDiPK3193u5O7sNJ+Vag9YOWD4PgOkPwgbSdVVatTxed1wy0nAukjmcdNaUwf2shdnB6tuwqjGzo55gCaqYvcmdhS63moL1c5q0H5s5GHxD+fINgFnxwgTA7RV49gxV8JOhucWTE/Rqp9bTce/HhrYOZWTY2U4pDLbcIw6m5CKZa2OzXV7PpyCbxlPrEC9us8NM595qorB/0BXuYSqrZ0yLr+K/08zBJxD5zmAqv+322MxseevRYsK9OfgySUxoobzWNmPMm8to15tzacQi3Z3/IivXSkoUnd0NDWjQ38fqS5SrOkFm58+TWGR+9LpeYCt2og3w4rp+v6xZ0B0JdNricK2xKaRdozQMRrRZ9rMBwl9yPbP74s2lX8OmzZSxGcnGqNO3MqTXi07wXO6a+uP9WF6poA5olhBxzhASKW8JqX32cql2CJmqWneOTAwqLOQfNdW3L4fZYX9D2xDhdqXrZ3keN9o5i/k47PvWH0kqlYmA7vDU5+wrYViBExnxRu8hgSFmeTFTJLAkKiBBkadITUl5MKuERuuBU3aW9cpelxs5/oUUWql4ZKCreNfp8BP2AuXOrXrKJ0jARcgzVnmJJwFSRp9zdkdM3iJkBUe0TY8f+diYPZXJKFKu92V1TuRU+8CxoXw+ylqvqTAxZvnEWCSjcZSH1+5Zq6MJP9L1cAop1NxprPT1Jcf2sp7ptw2pWrWshgK1Gx5R7yE0AWBCa9e71uDLVYBCoY1rvRoOVrpETaTpv0Ua1iNrSFLI01BMJuW/fhxjqT9XrkvUkszDpiLrUCwYMjLWkMxKtkuaau0ZsE3jEYVnuxAxO5puIaqrOeXSrJPbMTtAyjEmrP4Ps9BSkG00u8mI6PFTbO1Su4NW94ol2U7OBE/z+UULh2LHjW9A08vaqDJ2dHvCjYj8t3/Xr7mlef4WgHzelvxqjfHyQ6fR7pYz3tYeuG//bZ2+/2GOX38a8mf/frjfkOO1qhhH7t9vpHb4GD+MKGY+cOB5Qjj+uBM34i4HZJfW8WzidbLx5VM/urvAr/B7O8Btz0yrnE0KgO3n/FAmU6xCJv2pFZBzZQRfP84u5dnQQQOJ7hd2AIY6Plr1I4nXK68tHCzsXyiEu+IGZ6+efETO+/rXJTH9ziwLw3S+0T4oOlY8GwiKDp1N+9JAmHBDm4H2hrXyM/i1iMMmkavG2y/L7FBwn/n7//WLaekTP94ctErjxBh3esFGAcRfcDBPlt4HGSPkLp07wDdcK8kYzt4SLwnl62qCxELl97wdY7FuVp6dwsIJMzy+AOlwjRnsVypdeLQEM06HdptashOTT3XL1Sig+n3rKqQAcTPDh4Cw4CG8+NaOHjYt0vXHfS5gGOxfrwtf4dCvRVzC3tMn7iJ6CWl4vuLZ/Uefx8G9ah0abIHlmVjo6bhEaV/2Yk1yg5TXH4LghyY80HuXWrOmaT2r/w8e+/UrNihcFcsDPZV1aZFZH5Vm3v/m1PyAONmCvttUSw3+G7Oe8yA3i/+oTmvWwPF4Oq+6CkXAKq2p6xpBsA047oK7anEPVHuwsUnM1k3AjpSsAfMzXCaDQD39MDZEDo6Ct+PuQHd84i7CVkiH9tEwry8ASfmmPck095z7mUl6am9KePpNfPDvUhXxa9Y115+fr5UB28dv3yNt536W5VMGHfaN7zKqBgibIt6I0S7WeL4/vBk6G/RFaxZZfZLNyqVkISsQHryba6yrhDoOTEVE9wRFlqK9q8VKVjNOZKEjiKV1Lmte0hzvHdUcicBuaA3O1aXoGRa75CsSNs5nQTaVK5qk1qRuqYMbHruX9rnCJsFC1Exk3+gRzjd53I3BysO7PO+hxHvTPEom+21yfZGGKhAlv+hU2wIy0nFSR7TpBMjPlxIv+LpBFj2oqzg2vfLyVbG0i9sUS0+pB5KuVDWCUkk3nVsEizK2XnriLdvSXKng+ZNAxnNEhy7taI+v+VOXCkhfAi6dHi5mD1JcyoBD4RXH3WIvwuCJ1bbAm5gQNUfci27JRQyPFlslp9vxePaQtO4ad8l0aAKWr0IzULaXL17CLel8A9EAQG1aniKnZiUwDWrE+lCLY50sAxzAT8QknIesK34/sqwPpli4kt9taSpfsl8qd4AqhXlpB4fCJOfNWtTkiKRrbbQorf71RlESjs+xIL4p9X0O96MYJdJPusamZmv9UtAoMeXkl+jH4//hjP8zkxt4f8BsRAyF3x2H5+VvI15sX9Gq8H4LPhdz+UHl5Tfp3Sn9tQ/wh30cdl+3rNzYhx09+zfzsJucIs6Ii5DkH50edoVfg68x5ActtIBp1jETT+LvDiCsAlhwXlkJ+X4eBjM3Vm8vjNX6EO7/hKvK9lR93vGsTY3wB52un7yi+EGXu6hllccfzsobKxvNc3VO+JlrlzlxR69cbmNqtGOYytoJa7l0tTxB+Q2gBiLz5C6V8oS2H3bffjwTrqPt+njF+9QPzsulyCREBmlMbW5+D+tT76WLcLOZ0Ety4kmAVbSEO4+1ruWfqjOOcYAuzXwrBe1hevluVJd+dabfUjCHaaMItv1EfioaPTHkztLNpl3SE/4lPG9LC+eH9+cxUkGwhUBUCaTqFh6EDma15nQzi8Y2LC5hRfsX1UWtkfTL+9IGd2XGD3b1crur66HPl99DHJ3evrXyYSCq9Jugq2ITXyaN1MVYX+MXFE3KYQ9bq/UqfX2edoNj7S9/iMwVAV1136ppK/nYzBeQdNwxuth+s2O07nfxePy0fk+pwdPLB+1vNvy8hgUY9nmjStzvVGzVN4IzCtmzqw1dW5eAAXUga1JKZoLa8zFnNR6lrPOAHCtSswc2fd3TVDgv5E1sVSgzjvDbL9zxzEp+opLgVfAvLq9OEjA6viEyG+1D5fgGRjmqrpqJT7fGDEJbmZCARR+5JYfKordZ3LrxXHYFvChAmKwwdy6hKy+Ko1sAt8/StU23zuHgY2YdV4cMgW07ErUJjCjt4qaWAnjHZPD6duCFtsLNCwYYKJCsXSJeaC103YR+RnQjp7Qfama0xHLxmarcKUG+MhEnTYbzpPrWGVLc4u46Y7ujQx9gQxB3zKCKlFpFOGLVre9AXOecxAroBd+H6VtJ9YOTYlW4OgUqH5eWK8rINXZD1MPbiUVBqctRks64xzNEGHEX0gKDQqJVlnXDQkeYhpTDUiqmDyb/UM1zqJVrI9XiTP8WypzGxsTlauaxvcedssFrNLhhvIiPhuCxWYKUSs3CFnHgYNMW2I05CTk6Rkm8e7VtW/nbNHiaKyHQEQZ46vtNkUy5FTazAlOyCBhgFgO6nAxSm3ET4X64tdRKXbpReokeVKtznoxw/pE40kDSw2amJi53zxtxLI3jKC8K0AjYnA6VCaMkVtaq1KKPoZ7sck6siGzstAUxcqFMnaKY3rkg3mUbvEn5dspVcIeBdWpPi3vwEZ0oQdvR1mj6OXyyPZ96fT4Lx67wNefpvfjyIpanGGDdL/AClfNO3lWY2lqsPQzC2Y3myDX4b8e9WmIXjL/15FTCO43fretdL2cbtY8ms8UcwTed7u931xdULvXime/fxBtnzC5T7t7acS6X3H73dj+tWLG/Utzvieod1eawzOPf5hK8WHfc7/td//PXzRfoHKurRMSNhfkcryhqS3ITyr/EmzDY69y2of3lw7eY9szf74z8WkYeyri7KYj68U23CVJ5fm/lMoufCFNc3my6FYTX3fhN7hD3eOHHO5KAGYLjwzeP8eG9zmN++0ex5lQtH1Kuv//x7euzOH98wy8HZPCTRzFHrVO4bWql0wTlk8eKLv4vN64RTWGBThkN9BK6cIcLEedjYbW4Dt5wHtPrMWXVycXt9EJ1XHWMy4xDQLPCxV4OXPGr9irCHjlKesVgsF3efvcnx6VpBjMsYUBlNa21VELv32UkKGLrFsED7jebBdtQtez6fnn7wkKGpD/PIe+MsSdN8GKMq5x/maOViP0eRuW8U1ccl7PQyHKRDZ7nU2d82lsQ45MV0cjVNISTAgHaHoz5Vxet8H6UL229LUTfL1YVXqw4fpdb14WoJUSMJHPAjcz1wn8qKyaJ4OYk01Z1L2E0cJkkzw0TBCScY8nFF8OWxoWQiFXpxF5eHlVRI6aW/iVrNEI3W0gqdMklQebuJ0dNSLpfQrnS0dWGjil0hXKh1qXERoLI/rlstyx0+uBIpD30mFNKT2YEkLOkytf6zlCpdeVFQJ6GenTixZCroFDs1hZ6+1LACj3VKH3lwKdDoVnqfq1exVEcGCXOV7zyVNFFKZtkX2ErhirjhY6Pcc3JR5qm0TbwwRgbSg9NcxrHQV+Y3dMIVjyqCgebTQu7q1gfoW3JVvlKtIks6OMhg0Ccvj3JohO7a6tUs0zej3ETyTYKGyt6Hs4bikqcQrQxaG6kYi6UdRRlc3Q4HfApwr7VWiT18oG03G/B0KoY1BS2qhu2qVl4fkR1KSWvVijcd++qntuiNyqV2rz8Q4qQ5Cwi9VOgTDI3TvYvc700JlrV14kE4FsfJThHvKSkvlW5KuIvNwniL0TKH+OWdEQ5dW71zaZS0yMWjKtQkOLI6q9bxXX4tldPptRQSm4c/yqVkT+q6/sL3oTAa1AFKRUMSrkvg6kfqy6TGF93yIknPPXopp1Ca9VTIw9/yQHb2qGPf9v6Anyx83reMf+23vI0x8M9Zu7Vq6vE5LQcsOp+3kby+iB7vx3JnWwUzGOdfxs21Hr/yoWjH3dX4YRT4Jt4/Cwct4x/DUs3zBXkGjzX6RD77Uus7ROX96/x11QeLdd6gnzfutRFnbEW+3x1mWhXl3ZrSQ/YV3zfgW5jjrdsqebypePkyF7Zyb8kgXbRtz6ZmHRlTUAC3YT0ExCfy7zcfvK9y0RmK2c3DMIcj4q0/eJWdXD9btMNgKD/xgbDfDplJkMVUHiOcYBKIZ8tv7aUvJqDDHP4cLMtVFlg07SidnBzuoHK+763yCT5qqLBCKptJiFvVfOQJh4s4Hb7Q38kXiNT7Mr/K6rZogHabTFS76vB4Nw8RYRYMyO0KxCz4+nuTww82HnbAcIo6EJ3OR3+iH0OwonP8pLyY0Qu347c/v/2st1765MZkaD3LAyQWCkA3yZ8mdqdTZZKC3wec+PNDXD3S2Np+wbIuEXxmRVDvLWZFX6vTaJqO8hLPYY1ljcjs5AfQ8KCnkk8pgyTV9lR2XKvFW94hsFxv0S49ogcW+q2tah+ylDBuH0fCj71W+tVd5nNkH0FDalVRN1GipmNz6tgQ7+YT6QbyIDwzCvSI1jWPk5sUp29FT0wQ2KXLkstWDg4lqZCNT/vlO3BinYl+5TP7mvoe4d8WPgRv/s3I4DyTFV6naMHmGmdW6aN3HaY3dDLzztKjesapUdVDoO+uPJJ7YNCeq2GezaR3YeEAkHJHzLZhbxpKsAFXWs3R8VCnMCF2kMOCyRaSKK3KUau8H2Y6H04ckAkBitezbUF+1B1TCz3sJp3N5GYM1TOMYe501Eq8Wp4d0geIQMoA4Yg4+APEW+4WqZdBESe0f5iLCugrrm6xSt4dA50w6TWLZ83FDQXUm9BlauUH8B2pGi9Gx778DOC6zrZ5vmDSDISRQg28z8gdDRI0u28lgT04Fb3WyA7ZB7CNA11IpIzDHtqJ8OK1k53pbc+ECpp6Jw+IpnwavKtXWygJdh4J4ixm0pkm9wjvL/sCEocTXhMxO7yz3hFc7qDyUEyP1Q5/k4jcLZvl4o2D3sxoyhALU6TPvNiPKDRnIZnlNCjPnHKS7/ZBwGWEW58kXk2fO6wnIuDtpeT1fvj6JXmIt9a0y5Dl7oaTCMbTGhmwf9AD/rx4Cn7zR0HoO/n6O/wZzPEffOXtF7Y7+azrKho4npWrQ+m7kP/CMdfDrc7rubj7ThnGxZWDu1dWcQ3E6TuBrvT/q+pceiQ5ijie9erX9HRP7+7Mzuza3l17d9b22rIXjG0Efh5sGS9CIHMDARYI2UIySJY4GAkhBNwRJzhyQuLODSTuSJz4CFz4EEX8/v/I6nZpproqKx+RkZkRkZGRkeNbP1Nlp/xEY+H3sx4lpM8FaBvkAGj1Xi6wem/8QXmEk9ZxBUW2XoE65fnCkW7H4GTd4BTKPI4/39J3xnNw5HJx9jreKngaEFPeauwGU2NquUu/AexR04JouXYjCCDTedS+jNA1i4NcWs7alDdw7PN9vh8HFfpMn2AYM2STe7cDYegVZTYYOb0etDJXBvKy3JyXliuaXGttmGXy2zYLbMcI+KR8K0SW4dOM/9EDplOFAhmEUdAr0j8++vBtEnY/Ys4eEtD9cnI9B5M8W5zKKLlTY3i9lopr7ojNXqGDMAFN6RWTtcfY6tUel20ntVdMA07lQ708L0XJ11/ciuh/FP939oRCXAGI6LcoBmJsXFWlmd1C80LE9JTL1EapEFqw4tfFbMWQQz5wSkDy0/O7F1ropL+YHQI4wgh6hYcvRVCa1mIqyHE/6iL9EzsN8ws5LsoplG7cc4Bzs2U4dk9zmaKj6oBR6ZNsB9UnypbE11eIetGr1o9FA7FMOMfbX4C+ovK55IEo6l1XR2Zl5KXCRAsbl99nzZlHtXiGyDIb32ZUf14dXDRUiz6zRSRqWNARbkkxcC7rTvJNAfBmBsFfsvwhQtmwx7nAOunX2oRIC6icYqEkKSIiK0drCGTUQoXDdpfOZ0B1cC26VLlybEFJo+Xk+o3zK/3QcAwDgzK33is7GwRQSiQeZihbXeUsj67e5i4/5uvmU9k6A/2VmWQuTndSN2feqg89ppZlZAghHA4PD5j7HWTQds00H4zyVOusuGQIAVN5o3aH+lnRZtb7a4GvRyd5FXe5N4+3/QqEux1nLNcy/+u0iKkPyiL7d5E2ec8pXctaIV3dXCsH+dYIBzV/vBhpkZdxnYDCgzoy1kui0R8KrgBcctZal4jLwQjcBwfwuUgZBWK27azdbTyV4V/JJOzT3bTkUK/BMu0Agh1Pkt5Bdfisu5sNKATJQSzH8xdxO+BFQCAIlSOfbdtjB44lz4bZ56WnxthxXaVJUQl7pCfLdCo3lrwBEYmzIlTjmvPcKZULD7gRVDZBMTNSm3XIA830OatS74c3/SD6TRhgvDjddO3TT1+I3YKB6UWdw30k5Uj6iZNMhTt8LH/WznzkgC378jLT8XflDrO78a93/a4Whl9HZZdHw3g/BsSin2kfwDLThdiM30HWTf+zFn3usD8MUtNo338jPnyMglJ6/kb2gSKL46ZrsJ6yHqDaB/DuKdxeDqEuAff4v+/o/ZJ7wNWcaRgp3mpRxpfkRrAfv/bu+e5I8okEDOwQdJ7SryGlatu7Ymnl4noQs6QvhXF2AT9ljB0/rYnkanEUdGzJFBEiX46xqh5exW7hanz++ztRgmxk7mDYuKz++p+0u/w30oF4KW+9hKFlkXI6rpU2wzfARzDbcKLphhuiUEwtlnIjco6es0XpLT04IH7vu7fJwB35D/5tym9+q103HwRc3Wrof/jxw/lKnfjLEADNptHlXtXENcKfvka7wZOXEvPbpEPQLZbXZ8eb9W69acrpBuaFbdOCc3XLPJjKIPSdWz3x7p1I3UWDdLtneNfYR4BxGy/OYmo6G85efkHiQp20t3Yp28pFYF7T+OXWA4te9d0zJT2U7tb9aziO5uUnGXd4n4iBxlssiQ/l8dR8lEuzOdWy8Sk7FlYaErS0Ks3K/MctpVTx2HPOXwzqI/gb26Ki2hLqkIjFTNCAoco5p1qq3WlKFs6FrgDlClCC8UoqdGNxTYVBNkQnYWN4WSZzwVQFIn0VtpwKyOXrH5ivyH9+z8p9aedzO2bsUdjEPD5lDilSpX8hI69iEtwOmhFCTVUhioKJTDrl9Fd5Il3DTB4Bo7A2ucAMjVi83OXYAPfbGDlqJ+utOzPelfhDp01xnfZNoRz19FR46jBAoAfqTZVV69YJTLqBN4XkD+UGoFGg1zmUcoPukcUHbe7HHLSRVypfWgaf8E9EWVq4SaRfzQs21zpLSrB4NnXAoi3wwuE8hD3BfGERf+NG0XpL9tpOT1XgUJg4EWjnTTcBrx6fDg1Vf4WKgZp/eIDS95yle208sYNUKz70Zc3QvaxOQcagNQjFOwvU4kaD0Qs4rXqJcTCFUqBCmqTXWW+Bg2ysQAWp+w/XGV7aXK/83YecUIBbzZP1M0qVV469+lbTZltpHp8REiCypYp6ROwfHNLwpp03iq4+5ooctHs2JfS0Apetb+hqEKEqkWyidQKK6suRb8K4GzMol6xJfL64iRxfMlMJ+/pc9Vw8k0n2XQHuL0LJBOrnr6nGvgBCP9Vlhu1ZyXrKgzv+YaZEB0UhB2zZPlLG/3oGan4b4X8pXwkeNB9/9b5CCNf6fnnUncWUI97ffDZm0IQv1kPw1zdvRefrx9+/HRWfDf+O7Jhwa/5d4L/3nK9yq/4DnC+VGjk9Jx7k568gB3j1fPL/x60/sCeIh0vWIZQ+wm9yVof8Bt1YnDbt+M/TsunwGzBoGIzP38f4m+90lX58+WwnO/5vdztIH8JLsPnO3i2QmjgFMUjMi69Gx245EIsO3hpzfdTt9dM0ibo4DaybTMaXrSdE0kVCcJ+rLXYTzwGTOqos6IGW3qFl0AzbKuXF2vc8APf2iRAucqyfbKkvT78o5dkgN081Pif3vgnJP8hwmPV/+htkN0jNjo2JTXkOOwh12W6F1dW97ZaBS+53Ngz8aYKWxqbQ0PSi2x25pmQtC9ZB/XZrXF4rdyFc5Qlaqi8vfOmBaWHMYKIfdve0HhSc8ZuXpTIxXY1YnDotDJCPtJS5dUyDtW7G+POQsf9hPlYOO78buTIXylcyipgPOZ+uKZ88zGiwd7havkastVC5UD1oBf4jSM2QmTGkVEkNfYcOeZ7tIJf7pV2EkKhjqi/jbRPV/GJ5DZ3S/OSxO6dO5NzYy9qVmw/KVHeu1hOIbF8VmPKOZnGpqGQQSAzthm4wN29ZM+XrGhixh7E9aE2Fp6mZPVdz9VRVqnKvR2lZP6/k1RUTVu7SbmYXB3NKvRFZdvGetaGNka1ajyV9NnPmjP/kwtpLlHxJwDwN3SuXFSZhpb2Ej2KuK3rsYoT3xJfAMUJIXzNBLyewMcYSfSBVHl+D6NIiqTnHtM1QQp9GMDF07rXCetePm4eeQ7No928qjwpDTKyaBANY44z1qPu6n9sTzdHJ2VbyoaiNMOG21TkJahSxpoSgBYc8cBMzdKcs+sW0HTDa6XjgjGeeXFG2/xE1EvtZZsd39fI/t7cDCLmTPju7oapiQKnGqrLcwYYN9diQskJ+AVaN/GjHNUiBnHEN+BBPIc+qUy4WnJx5VlUPtWmAQWFm5ULCfq1ML/mrn3ZfeedTcsxmrTUH4WNrQVhAuxs5vEN1QIX3QQf3WgwQIbQ1Tgxhr58GWhTAO1MzRkc3bc0xFCSbvLxlrWoJGVbfKuLdCARkzM9FP3j390YNobCUzN3LxPUl9YNDywT5kKmNTvjoazGji/n8B4VDcM1XI+H4r/KK9O43zrbRiI3m5+LDDy6whSPeh/gHPC+/ZFuP0gW5GT+1elH7/svE7+0nIOZCI8C1lX9r/V+GYvwCE78gfbILzOkQegJwmfkhB3zGbiPeqQ358jd2czkYG99DIJU/Ac1spVcg/I/tpulnM+XP1P4ZU8kOM4c8116d8gqWUCELrDSWS47cuLZv8nt+szyJIbuun0boN/B7A/+5fK+sLlgV2EXfqNokZZBaUfgVe5JEN9v5IJrO6JARrIWLvbzgqysXzgzlK1dTPmYF4DbKHJq+gxIp0T3oV/a6QNwS8Y6Ct18owPDjTF6+mgf3zrDHBkydpzvJrkCkEVszU5QYWMO18vxtKnESM06r4MkwZqFPncN0e+mFAjU3chDSzjP2qXhnp2RVxK0OxCg1XTMl8hxBdXTzqPOD+KoI7p66zhBdl93x1svaUOSYm2ykPimQMBEkyRpwa7aLuDh1hUDkStRvhRSvwk7LDmKnotv2JJq/x6lDTHaOggQu3ZqBj/l8zVrAOlCAdcTilnzPbMoOt0Kzxyf7DzUAw5FCVYIIo5zgMqMwIZ7LOY1jJbOqq6NAwqP+W71Rl5y8UE2f4pVX2qrBJls+9UxeAFrdOuld5R0BiLZ/iLsLxensqSUJJZxgDRAPw9DgJFA7DwFSpcxmy07eZRDEQgwaLvh2C/VZWWspQvup05ssrhKnqpCHg1VNBKsMrVwjw/2n2SwRBkm8OZclmq3B+0H9112AcWTkORdqL1s+czpvj88CJPM4qnJKIPTkh3mNINmTf4WzIzS+DFpqV8FSLEn7wppLl+aTrbxaAiiKDoGTPK1ugHfluFTzumKQYFiEEHlwnFzGz7omWvJJw6KOjUwC/hIdxkt3EJ9HLVcRq6Z0KyEV6zWqaYzt8dpqVpvGMfo2axZMxEHnEuFQMLdLd6Lc8+C0B48Cnn4KBggSdkF8wwKHtwLKRbjgyT/fFF9vdOLsHMqRp0yQKIOUEpVXb5YLJPZpDxAP0/KRvqn6zsDhWvtAuknClCOEGAAvklxoab4Ju32LV1LiumZZPWWvUBXhXAAzZRYzaudeVPODzV75INBUNRWrIHdcCsymz1i1hVs9A7Z0E1p+hD4wJJSZetz/AYy9w+uYyQlYAAAAAElFTkSuQmCC;" parent="1" vertex="1">
          <mxGeometry x="-160" y="120" width="520" height="520" as="geometry" />
        </mxCell>
        <mxCell id="gvzwviC2EM5JePrp1jfJ-5" value="" style="shape=image;verticalLabelPosition=bottom;labelBackgroundColor=default;verticalAlign=top;aspect=fixed;imageAspect=0;image=data:image/png,iVBORw0KGgoAAAANSUhEUgAAAW4AAAFuCAYAAAChovKPAABIIElEQVR4Xu3dT6tv2VX9/zTyBVvaMKn/alEJMY0QgunYCoboMxIhYEMRG0pASFAj2ktPBCFPw45G0rRpU0SEpGHg92NRbC68zpqj1tpn7c/Z52ZNeHeKMcaca+2957lQp2597v/btWvXrl2vqj7nP9i1a9euXfeuvbh37dq165XVXty7du3a9cpqL+5du3btemW1F/euXbt2vbLai3vXrl27Xlntxb1r165dr6z24t61a9euV1Z7ce/atWvXK6vhxf0///M/T/j444+7/OZv/uYTfuu3fquLusRv/MZvPMG8xn/91391cc5q1hmc50Bdole//uu/3uWjjz56gr2re6lwnsR//Md/dPn93//9J7z77rtP8P4PPFPDORPO2fjLv/zLLu+9994TnOcMzlThnAd/+7d/+wS9Bz7v9M7prdCX+Id/+Icu3mu6W/s31DTsfYYf//jHT/jggw+e4J0e+G427HGgNz2bHiO1F3enzwzOs+pBubD34s44Z8OFvRd3Rl/Chb0X9xv0pmfTY6T24u70mcF5Vj0oF/Ze3BnnbLiw9+LO6Eu4sPfifoPe9Gx6jNRe3J0+MzjPqgflwt6LO+OcDRf2XtwZfQkX9l7cb9Cbnk2PkRpe3J988skTvPQDB0noTeit0Jfwgg/UNezT0JcelHkHehu+JAe+1LMvtr0bahK+AwfOX+Hs6Qx6D5y/OoMzHqhLvdQ17J3Qm/BOqnuptPZOM+hNvXroTThPmmsG82YxbxW+Q9V7VDFSe3F3LrmhrmGfhr70oMw70NtwYe/F/Qbnr87gjAfqUi91DXsn9Ca8k+peKq290wx6U68eehPOk+aawbxZzFuF71D1HlWM1F7cnUtuqGvYp6EvPSjzDvQ2XNh7cb/B+aszOOOButRLXcPeCb0J76S6l0pr7zSD3tSrh96E86S5ZjBvFvNW4TtUvUcVI7UXd+eSG+oa9mnoSw/KvAO9DRf2XtxvcP7qDM54oC71Utewd0Jvwjup7qXS2jvNoDf16qE34TxprhnMm8W8VfgOVe9RxUjtxd255Ia6hn0a+tKDMu9Ab8OFvRf3G5y/OoMzHqhLvdQ17J3Qm/BOqnuptPZOM+hNvXroTThPmmsG82YxbxW+Q9V7VDFSe3F3LrmhrmGfhr70oMw70NtwYe/F/Qbnr87gjAfqUi91DXsn9Ca8k+peKq290wx6U68eehPOk+aawbxZzFuF71D1HlWM1PDi9tDp4OpmtRV6K3xx0gukN6E3oTf5nTNh5l3wRa1eVs9+oK7KbOit/GoSelOGmqTtoe/AZ129s1WG97TqvtQl9M5iXkLvLN5Twx6pl5qE3pQxUntxd/wVehN6k985E2beBT+A6iPw7AfqqswVi6iH3pShJml76DvwWVfvbJXhPa26L3UJvbOYl9A7i/fUsEfqpSahN2WM1F7cHX+F3oTe5HfOhJl3wQ+g+gg8+4G6KnPFIuqhN2WoSdoe+g581tU7W2V4T6vuS11C7yzmJfTO4j017JF6qUnoTRkjtRd3x1+hN6E3+Z0zYeZd8AOoPgLPfqCuylyxiHroTRlqkraHvgOfdfXOVhne06r7UpfQO4t5Cb2zeE8Ne6ReahJ6U8ZI7cXd8VfoTehNfudMmHkX/ACqj8CzH6irMlcsoh56U4aapO2h78BnXb2zVYb3tOq+1CX0zmJeQu8s3lPDHqmXmoTelDFSw4vb8Dvj5ST0pgw1la7SzuAL9Vkv1kvj+VfcgXkJvQ3vbtUd2jvN8JrwPGcw8y44ZzWrmoTeVYzUXtwdf5WhptJV2hlcNquWzlV4/hV3YF5Cb8O7W3WH9k4zvCY8zxnMvAvOWc2qJqF3FSO1F3fHX2WoqXSVdgaXzaqlcxWef8UdmJfQ2/DuVt2hvdMMrwnPcwYz74JzVrOqSehdxUjtxd3xVxlqKl2lncFls2rpXIXnX3EH5iX0Nry7VXdo7zTDa8LznMHMu+Cc1axqEnpXMVJ7cXf8VYaaSldpZ3DZrFo6V+H5V9yBeQm9De9u1R3aO83wmvA8ZzDzLjhnNauahN5VjNRe3B1/laGm0lXaGVw2q5bOVXj+FXdgXkJvw7tbdYf2TjO8JjzPGcy8C85ZzaomoXcVI3XLxe0FXXlR9pjt5VJYtRx+2fD+Z57BCuz9EjPM4JyzmLcK+1zZ66XxnKvOO1J7cXf6zPRyYe/FfQ7vf+YZrMDeLzHDDM45i3mrsM+VvV4az7nqvCO1F3enz0wvF/Ze3Ofw/meewQrs/RIzzOCcs5i3Cvtc2eul8ZyrzjtSe3F3+sz0cmHvxX0O73/mGazA3i8xwwzOOYt5q7DPlb1eGs+56rwjtRd3p89MLxf2Xtzn8P5nnsEK7P0SM8zgnLOYtwr7XNnrpfGcq847Us9a3A58ZnC9ya8uaZ+LfapeahJ6V2GfK3u9rXh/d7lH57nLXBX+AeYuf4hxpoZ3Oos9VjFSe3EX2KfqpSahdxX2ubLX24r3d5d7dJ67zFXhctyLe56R2ou7wD5VLzUJvauwz5W93la8v7vco/PcZa4Kl+Ne3POM1F7cBfapeqlJ6F2Ffa7s9bbi/d3lHp3nLnNVuBz34p5npPbiLrBP1UtNQu8q7HNlr7cV7+8u9+g8d5mrwuW4F/c8I7UXd4F9ql5qEnpXYZ8re72teH93uUfnuctcFS7HvbjnGalnLe4KD3jlIZ+Lc9593pfGe7ryvuyxqpd5KzIfjfMn9Fbom/WvwN6zmHcl9l41w0jtxd2Z9c7zvjTe05X3ZY9VvcxbkflonD+ht0LfrH8F9p7FvCux96oZRmov7s6sd573pfGerrwve6zqZd6KzEfj/Am9Ffpm/Suw9yzmXYm9V80wUntxd2a987wvjfd05X3ZY1Uv81ZkPhrnT+it0DfrX4G9ZzHvSuy9aoaR2ou7M+ud531pvKcr78seq3qZtyLz0Th/Qm+Fvln/Cuw9i3lXYu9VM4zUJYt7s2n4Qq94qWew90vMMINzrprVzNlcvbP+twHPf+UdjNRe3JvL8EW/8mXvYe+XmGEG51w1q5mzuXpn/W8Dnv/KOxipvbg3l+GLfuXL3sPeLzHDDM65alYzZ3P1zvrfBjz/lXcwUntxby7DF/3Kl72HvV9ihhmcc9WsZs7m6p31vw14/ivvYKT24t5chi/6lS97D3u/xAwzOOeqWc2czdU7638b8PxX3sFIDS/u//7v/36C/wlp+k9cPfSqw5vX+N///d8uH3zwwRM+/vjjLp6p+k9knSdh3kGvvvSlL3XRW933Vfz0pz/t8q1vfesJ77777hO859n7nrnzP//zP+/iTI1PPvmki3MmnHNm1sYPfvCDJ5h34F2l++ph74aaxN/93d918V4b9pntpy/51Rz88z//8xM+/PDDJ+hbhXOmeUdqL+7OB9jwTNWH4TwJ8w565cLei3v+zl3Ye3HnudQkXNh7cWecM807Untxdz7AhmeqPgznSZh30CsX9l7c83fuwt6LO8+lJuHC3os745xp3pHai7vzATY8U/VhOE/CvINeubD34p6/cxf2Xtx5LjUJF/Ze3BnnTPOO1F7cnQ+w4ZmqD8N5EuYd9MqFvRf3/J27sPfiznOpSbiw9+LOOGead6T24u58gA3PVH0YzpMw76BXLuy9uOfv3IW9F3eeS03Chb0Xd8Y507wjNby4fUlmF4YDJ/TO8v7773fxQ6s+toZnnf0w9Kb7cqaGL9TBRx999AR7N+yRcM50Xr0pQ2/yq0vaUcxL6E0ZnnP2vPoO1CXsU/Wq0Jv8zrli1gq9Vf8VM6iZxbyUqyZpR2ov7k7/hmdtqEnoTfflTHtxZ+0o5iX0pgzPOXtefQfqEvapelXoTX7nXDFrhd6q/4oZ1MxiXspVk7QjtRd3p3/DszbUJPSm+3KmvbizdhTzEnpThuecPa++A3UJ+1S9KvQmv3OumLVCb9V/xQxqZjEv5apJ2pHai7vTv+FZG2oSetN9OdNe3Fk7inkJvSnDc86eV9+BuoR9ql4VepPfOVfMWqG36r9iBjWzmJdy1STtSO3F3enf8KwNNQm96b6caS/urB3FvITelOE5Z8+r70Bdwj5Vrwq9ye+cK2at0Fv1XzGDmlnMS7lqknakhhe3DWdxuCux95kZ9FZ+X6b0UpmXciv0Vn41q7QV/uBpqJnFeWYxL+HzOzCzoSZpe+ib9TecP51B3aNx9nSGHvpm/TN4dwm9qxipvbgL9FZ+H2Z6qOal3Aq9lV/NKm2FS3sv7hp9s/6G86czqHs0zp7O0EPfrH8G7y6hdxUjtRd3gd7K78NMD9W8lFuht/KrWaWtcGnvxV2jb9bfcP50BnWPxtnTGXrom/XP4N0l9K5ipPbiLtBb+X2Y6aGal3Ir9FZ+Nau0FS7tvbhr9M36G86fzqDu0Th7OkMPfbP+Gby7hN5VjNRe3AV6K78PMz1U81Juhd7Kr2aVtsKlvRd3jb5Zf8P50xnUPRpnT2fooW/WP4N3l9C7ipHai7tAb+X3YaaHal7KrdBb+dWs0la4tPfirtE36284fzqDukfj7OkMPfTN+mfw7hJ6VzFSw4vb8IYXmS5UTdK+rXj2hN5V2Ge2ly/vgUu7oaZh7zMz6K389k7oPYMzVXPN4JwJvQnnXDHrCpwpoTeht/KrWaWdYaT24n4gnj2hdxX2me3lsjhwae/FXc81g3Mm9Cacc8WsK3CmhN6E3sqvZpV2hpHai/uBePaE3lXYZ7aXy+LApb0Xdz3XDM6Z0JtwzhWzrsCZEnoTeiu/mlXaGUZqL+4H4tkTeldhn9leLosDl/Ze3PVcMzhnQm/COVfMugJnSuhN6K38alZpZxipvbgfiGdP6F2FfWZ7uSwOXNp7cddzzeCcCb0J51wx6wqcKaE3obfyq1mlnWGknrW4Z/Bwqw75y4b3V6EvoTdlqEm4WBpqDuyzAnuc6eX8KxZkhd6E3lnMm830TtLztU/qpyahN/nVJW0Pz5neA/vM9hqpvbhfGd5fhb6E3pShJuGLXn3YDfuswB5nejl/+mB72DuhN6F3FvNmM72T9Hztk/qpSehNfnVJ28NzpvfAPrO9Rmov7leG91ehL6E3ZahJ+KJXH3bDPiuwx5lezp8+2B72TuhN6J3FvNlM7yQ9X/ukfmoSepNfXdL28JzpPbDPbK+R2ov7leH9VehL6E0ZahK+6NWH3bDPCuxxppfzpw+2h70TehN6ZzFvNtM7Sc/XPqmfmoTe5FeXtD08Z3oP7DPba6T24n5leH8V+hJ6U4aahC969WE37LMCe5zp5fzpg+1h74TehN5ZzJvN9E7S87VP6qcmoTf51SVtD8+Z3gP7zPYaqWctbodL6L07PqTqQXnOq89rn6qXmqRdgX2u7DWK87zEXPZO/dXNaq/C3gm9s/7NXtzPwqW9F3fGPlf2GsV5XmIue6f+6ma1V2HvhN5Z/2Yv7mfh0t6LO2OfK3uN4jwvMZe9U391s9qrsHdC76x/sxf3s3Bp78Wdsc+VvUZxnpeYy96pv7pZ7VXYO6F31r/Zi/tZuLT34s7Y58peozjPS8xl79Rf3az2Kuyd0Dvr3+zF/Sxc2ntxZ+xzZa9RnOcl5rJ36q9uVnsV9k7onfVvHrC4K3xwv4wPz/Pf+Q6c88p57XFlrwp7z/bXmzLUVLpKW6E3+dVV6Jv1vzY8513OOlJ7cV+E57/zHTjnlfPa48peFfae7a83ZaipdJW2Qm/yq6vQN+t/bXjOu5x1pPbivgjPf+c7cM4r57XHlb0q7D3bX2/KUFPpKm2F3uRXV6Fv1v/a8Jx3OetI7cV9EZ7/znfgnFfOa48re1XYe7a/3pShptJV2gq9ya+uQt+s/7XhOe9y1pHai/siPP+d78A5r5zXHlf2qrD3bH+9KUNNpau0FXqTX12Fvln/a8Nz3uWsI3XJ4n5pfBhnHoreWf9m7g7VJW0PvS+BM1Xom/Vv5vGu73zfI7UXd4HeWf9m7g7VJW0PvS+BM1Xom/Vv5vGu73zfI7UXd4HeWf9m7g7VJW0PvS+BM1Xom/Vv5vGu73zfI7UXd4HeWf9m7g7VJW0PvS+BM1Xom/Vv5vGu73zfI7UXd4HeWf9m7g7VJW0PvS+BM1Xom/Vv5vGu73zfI7UXd4HeWf9m7g7VJW0PvS+BM1Xom/Vv5vGu73zfIzW8uH/+858/4aOPPuriBT36kn7xi190+fjjj5/gnC8x789+9rMnOGea179Tpfp7VRp6G2oS//7v/97l937v957wxS9+8Qme58B3qHqPGp61oabxZ3/2Z13eeeedJzjPGexf4Z0efP/733+C3s/KeA72SL1++MMfdnnvvfee4D3N3pfPOj3zin/6p396wocffvgEfQf2Tt9YD/MSI7UXd2fWR8/r0t6Lu36PGp61+ohd2HtxZ+yRermw9+LOmJcYqb24O7M+el6X9l7c9XvU8KzVR+zC3os7Y4/Uy4W9F3fGvMRI7cXdmfXR87q09+Ku36OGZ60+Yhf2XtwZe6ReLuy9uDPmJUZqL+7OrI+e16W9F3f9HjU8a/URu7D34s7YI/VyYe/FnTEvMVLDi9uPquFwBx6w4UM7UDd7IT2+/OUvd/GFanimzzrbFXgnjS996Utd1FUfgHe66m7tc6DuDjjjgffX0JvwThP2XoUzXYm9Z/vrTehteKfpbvWuwt5V/2oGNYmR2ou7c650tivwThou7L2453HGA++voTfhnSbsvQpnuhJ7z/bXm9Db8E7T3epdhb2r/tUMahIjtRd351zpbFfgnTRc2Htxz+OMB95fQ2/CO03YexXOdCX2nu2vN6G34Z2mu9W7CntX/asZ1CRGai/uzrnS2a7AO2m4sPfinscZD7y/ht6Ed5qw9yqc6UrsPdtfb0JvwztNd6t3Ffau+lczqEmM1F7cnXOls12Bd9JwYe/FPY8zHnh/Db0J7zRh71U405XYe7a/3oTehnea7lbvKuxd9a9mUJMYqb24O+dKZ7sC76Thwt6Lex5nPPD+GnoT3mnC3qtwpiux92x/vQm9De803a3eVdi76l/NoCYxUsOL20ESDtJQk9Cb0NvwV3wO1DX8gNMy7GHe1fjyNNQk9KYXsIf3dGbxPQpnT2fQmzDvQN0szpTeQ5/h7HtgXkNNQm/KcM40r3lVZoXehN6GMx7orfwrGKm9uDsfS/pgxLyr8YWqPoAKvdVLWeE9HdjnDjh7OoPehHkH6mZxpvQe+gxn3wPzGmoSelOGc6Z5zasyK/Qm9Dac8UBv5V/BSO3F3flY0gcj5l2NL1T1AVTorV7KCu/pwD53wNnTGfQmzDtQN4szpffQZzj7HpjXUJPQmzKcM81rXpVZoTeht+GMB3or/wpGai/uzseSPhgx72p8oaoPoEJv9VJWeE8H9rkDzp7OoDdh3oG6WZwpvYc+w9n3wLyGmoTelOGcaV7zqswKvQm9DWc80Fv5VzBSe3F3Ppb0wYh5V+MLVX0AFXqrl7LCezqwzx1w9nQGvQnzDtTN4kzpPfQZzr4H5jXUJPSmDOdM85pXZVboTehtOOOB3sq/gpG65eJ+LvY+8GFUD6Rh5pXY+9E4zxnMXJXbwz5VLzVJW6H3Dv4qQ03S+h3c5Vu4Cs9053ON1F7cHV3DzCux96NxnjOYuSq3h32qXmqStkLvHfxVhpqk9Tu4y7dwFZ7pzucaqb24O7qGmVdi70fjPGcwc1VuD/tUvdQkbYXeO/irDDVJ63dwl2/hKjzTnc81Untxd3QNM6/E3o/Gec5g5qrcHvapeqlJ2gq9d/BXGWqS1u/gLt/CVXimO59rpPbi7ugaZl6JvR+N85zBzFW5PexT9VKTtBV67+CvMtQkrd/BXb6Fq/BMdz7XSA0vbg+9CoeexbyGL+SB3itxpoaaq7VXYO/ZGfQlv5qkvQPOWc2q5mptD70vgTNVc6m5UqsmofdMRo+R2ov7IpypoeZq7RXYe3YGfcmvJmnvgHNWs6q5WttD70vgTNVcaq7UqknoPZPRY6T24r4IZ2qouVp7BfaenUFf8qtJ2jvgnNWsaq7W9tD7EjhTNZeaK7VqEnrPZPQYqb24L8KZGmqu1l6BvWdn0Jf8apL2DjhnNauaq7U99L4EzlTNpeZKrZqE3jMZPUZqL+6LcKaGmqu1V2Dv2Rn0Jb+apL0DzlnNquZqbQ+9L4EzVXOpuVKrJqH3TEaPkdqL+yKcqaHmau0V2Ht2Bn3JryZp74BzVrOquVrbQ+9L4EzVXGqu1KpJ6D2T0WOkhhe34XfGizxzoXpn/Y/EORN6k1/dCuyReqlJ6G34g/vqH+DOVM1VoXfWP4N30rB3mkHNGW0PvQnnnz3DXRmpvbgL9M76H4lzJvQmv7oV2CP1UpPQ2/Cj3ov7Dd7J7NJTc0bbQ2/C+WfPcFdGai/uAr2z/kfinAm9ya9uBfZIvdQk9Db8qPfifoN3Mrv01JzR9tCbcP7ZM9yVkdqLu0DvrP+ROGdCb/KrW4E9Ui81Cb0NP+q9uN/gncwuPTVntD30Jpx/9gx3ZaT24i7QO+t/JM6Z0Jv86lZgj9RLTUJvw496L+43eCezS0/NGW0PvQnnnz3DXRmpZy1uLyddkppV2quw96P7b2p8LiuejXlncvXO+nuYdyZXb+VXc0bbQ2/KUJPQ+2j/VYzUXtwF9n50/02Nz2XFszHvTK7eWX8P887k6q38as5oe+hNGWoSeh/tv4qR2ou7wN6P7r+p8bmseDbmncnVO+vvYd6ZXL2VX80ZbQ+9KUNNQu+j/VcxUntxF9j70f03NT6XFc/GvDO5emf9Pcw7k6u38qs5o+2hN2WoSeh9tP8qRmov7gJ7P7r/psbnsuLZmHcmV++sv4d5Z3L1Vn41Z7Q99KYMNQm9j/ZfxUjtxV1g70f339T4XFY8G/PO5Oqd9fcw70yu3sqv5oy2h96UoSah99H+qxipZy3uu+LDuNND6eGcd561wvnvcAbnSXOpOfDXzdKvE+ptqKl0lXYF9ql6qTmjncHMFdhjVS/zEnpnGam9uG+Ac9551grnv8MZnCfNpebApb0Xd9bOYOYK7LGql3kJvbOM1F7cN8A57zxrhfPf4QzOk+ZSc+DS3os7a2cwcwX2WNXLvITeWUZqL+4b4Jx3nrXC+e9wBudJc6k5cGnvxZ21M5i5Anus6mVeQu8sI7UX9w1wzjvPWuH8dziD86S51By4tPfiztoZzFyBPVb1Mi+hd5aRGl7cv/jFL57w0Ucfdfnwww+f8PHHH3dx6IYXMXsh//Iv/9Llq1/96hO+/vWvd/FjbTh7wxkT5h38/Oc/f8L777/f5b333nvCBx988AR7JJzzwHtt/PSnP+3y7W9/+wlf/OIXn/DJJ5908R1qeNcHzt9wzsYf//Efd3n33XefYI8zeH/VHao5+Ku/+qsn6E2Yd+BdVfc1ww9/+MMuvq8N50nYZxX/+I//+AR3VEPfSzBSe3F3lvZe3J/ivTZc2Htxv8H7q+5QzYFLey/udbi09+Lu4GXsxf0p5h24tPfi3ot7L+61uLT34u7gZezF/SnmHbi09+Lei3sv7rW4tPfi7uBl7MX9KeYduLT34t6Ley/utbi09+Lu4GXsxf0p5h24tPfi3ot7L+61uLR/aRa34Q2XxcGXv/zlJ/jirHqBevzO7/xOF2dqvPPOO118oa58qVxYDTWzOPvVZ+hh79n+emczXKyzC7bCd3jVu+yc1ayz8/YwbzZT78oM0Zf8ag6814aahM96xfOuGKm9uDtLey/uNdh7tr/e2Qw/1LQM9SZ8h1e9y85ZzTo7bw/zZjP1rswQfcmv5sB73Yu7g8txL+6MS3sv7to/k+GHmpah3oTv8Kp32TmrWWfn7WHebKbelRmiL/nVHHive3F3cDnuxZ1xae/FXftnMvxQ0zLUm/AdXvUuO2c16+y8PcybzdS7MkP0Jb+aA+91L+4OLse9uDMu7b24a/9Mhh9qWoZ6E77Dq95l56xmnZ23h3mzmXpXZoi+5Fdz4L3+Ui9uLyK9bB76QN0szpTw3yCn33bpYV7Dec7M1cO8lKum0lXaCr2zmLcicwZ7n8HMlKuu4fuePnjzZjEvoXfW75nS96w3oXfW7zzpzu0z2+sqRmov7s78FeY1nOfMXD3MS7lqKl2lrdA7i3krMmew9xnMTLnqGr7v1RJJuaOYl9A76/dM6XvWm9A763eedOf2me11FSO1F3dn/grzGs5zZq4e5qVcNZWu0lboncW8FZkz2PsMZqZcdQ3f92qJpNxRzEvonfV7pvQ9603onfU7T7pz+8z2uoqR2ou7M3+FeQ3nOTNXD/NSrppKV2kr9M5i3orMGex9BjNTrrqG73u1RFLuKOYl9M76PVP6nvUm9M76nSfduX1me13FSO3F3Zm/wryG85yZq4d5KVdNpau0FXpnMW9F5gz2PoOZKVddw/e9WiIpdxTzEnpn/Z4pfc96E3pn/c6T7tw+s72uYqSGF7cHnD2k3pShJml7uHDT4q3wwVcPX03Sep50LjWzmJfQmzLUJPQm9Cb0Vuib9VcZas5oRzHvylw1Z7TPxe+o+pZmcf7ZM+hN6J1lpPbiLvDlqV4gNUnredK51MxiXkJvylCT0JvQm9BboW/WX2WoOaMdxbwrc9Wc0T4Xv6PqW5rF+WfPoDehd5aR2ou7wJeneoHUJK3nSedSM4t5Cb0pQ01Cb0JvQm+Fvll/laHmjHYU867MVXNG+1z8jqpvaRbnnz2D3oTeWUZqL+4CX57qBVKTtJ4nnUvNLOYl9KYMNQm9Cb0JvRX6Zv1Vhpoz2lHMuzJXzRntc/E7qr6lWZx/9gx6E3pnGam9uAt8eaoXSE3Sep50LjWzmJfQmzLUJPQm9Cb0Vuib9VcZas5oRzHvylw1Z7TPxe+o+pZmcf7ZM+hN6J1lpPbiLvDlqV4gNUnredK51MxiXkJvylCT0JvQm9BboW/WX2WoOaMdxbwrc9Wc0T4Xv6PqW5rF+WfPoDehd5aRGl7chjcc+Mzgemf9L42zJ/SewcxVuaPYO6F3FvNSrppKN6udwcwKfauwT0JvQu+sv8LMCn0JvWcyepiX0Jv86hojtRf3M3H2hN4zmLkqdxR7J/TOYl7KVVPpZrUzmFmhbxX2SehN6J31V5hZoS+h90xGD/MSepNfXWOk9uJ+Js6e0HsGM1fljmLvhN5ZzEu5airdrHYGMyv0rcI+Cb0JvbP+CjMr9CX0nsnoYV5Cb/Kra4zUXtzPxNkTes9g5qrcUeyd0DuLeSlXTaWb1c5gZoW+VdgnoTehd9ZfYWaFvoTeMxk9zEvoTX51jZHai/uZOHtC7xnMXJU7ir0TemcxL+WqqXSz2hnMrNC3Cvsk9Cb0zvorzKzQl9B7JqOHeQm9ya+uMVLDi9uGVdMrsf+KGcxLuWoSeu+Ms79NZxjFvITelOFvSDT0ncE+s3M9EudZhX2uxN5X9h+pvbg7mVWumoTeO+Psb9MZRjEvoTdluLT34l6Hfa7E3lf2H6m9uDuZVa6ahN474+xv0xlGMS+hN2W4tPfiXod9rsTeV/Yfqb24O5lVrpqE3jvj7G/TGUYxL6E3Zbi09+Jeh32uxN5X9h+pvbg7mVWumoTeO+Psb9MZRjEvoTdluLT34l6Hfa7E3lf2H6m9uDuZVa6ahN474+xv0xlGMS+hN2W4tPfiXod9rsTeV/YfqeHFbXjDg6w6kHkJvQk/oIaazTp8VrPPq8LMKlfNge/AqmXaw5lW4fx3eZc9f7oDdQ3PdJdzzeCZGmoSI7UXd0e3WYPPavZ5VZhZ5ao58B1oqFmFM63C+e/yLnv+dAfqGp7pLueawTM11CRGai/ujm6zBp/V7POqMLPKVXPgO9BQswpnWoXz3+Vd9vzpDtQ1PNNdzjWDZ2qoSYzUXtwd3WYNPqvZ51VhZpWr5sB3oKFmFc60Cue/y7vs+dMdqGt4prucawbP1FCTGKm9uDu6zRp8VrPPq8LMKlfNge9AQ80qnGkVzn+Xd9nzpztQ1/BMdznXDJ6poSYxUs9a3I/Gy6jQt3kZfC6zz0bvmYxR7HFlrxmc5y5zVTjnnWd9JN5JupuR2ot7cxk+l9lno/dMxij2uLLXDM5zl7kqnPPOsz4S7yTdzUjtxb25DJ/L7LPReyZjFHtc2WsG57nLXBXOeedZH4l3ku5mpPbi3lyGz2X22eg9kzGKPa7sNYPz3GWuCue886yPxDtJdzNSe3FvLsPnMvts9J7JGMUeV/aawXnuMleFc9551kfinaS7Ganhxf2f//mfT/jWt77V5Ytf/OIT/D+uH3z00UdP8HDpkGoaf/M3f9Pl85///BO++c1vdvnkk0+e4Ozp/xzvTA01B7/4xS+e8P7773d57733nvDhhx8+wX8zn/4NvZqk/clPftLl29/+9hN8Bxre6YHzN7y/dI9qGn/0R3/UxZnSXD7vWZyp4ewH3/ve956g5gz2r9CX+MEPftDF97Vhn9RPTaWb1f7oRz96gu97w7wDdUlr71lGai/uztLei7vWurD34s44U8PZD1zae3HXulmtS3sv7g5+FHtx1/M3XNp7ce/FvRd31s1qXdp7cXfwo9iLu56/4dLei3sv7r24s25W69Lei7uDH8Ve3PX8DZf2Xtx7ce/FnXWzWpf2Xtwd/Cj24q7nb7i09+Lei3sv7qyb1bq0f2kW9ze+8Y0nfOELX+jiQRou5wOHTpjZUNP40pe+1OUrX/nKE7785S938QOsPkI1SeucCb0JvVdi7zSDmkr3aHxWDTUHzp/OoC5pR3FZpB+qFXpn/Z4pnUtd0o7i7Af2SZhZYY/US+8ZzGyM1F7cnaW9F3eNvdMMairdo/FZ7cWd8UzpXOqSdhRnP7BPwswKe6Rees9gZmOk9uLuLO29uGvsnWZQU+kejc9qL+6MZ0rnUpe0ozj7gX0SZlbYI/XSewYzGyO1F3dnae/FXWPvNIOaSvdofFZ7cWc8UzqXuqQdxdkP7JMws8IeqZfeM5jZGKm9uDtLey/uGnunGdRUukfjs9qLO+OZ0rnUJe0ozn5gn4SZFfZIvfSewczGSA0vbv+N/6rfXHDoht6UoabhbwYk/IAP/AHTsHfVv+GZ0rnUzWp76EvoTRne04Hehnf16PtScwbnT2d4LvZJOOcs9k7oTX51Cb2VX80qbQ99V2P/xkjtxd1ZQntx1xne017c67BPwjlnsXdCb/KrS+it/GpWaXvouxr7N0ZqL+7OEtqLu87wnvbiXod9Es45i70TepNfXUJv5VezSttD39XYvzFSe3F3ltBe3HWG97QX9zrsk3DOWeyd0Jv86hJ6K7+aVdoe+q7G/o2R2ou7s4T24q4zvKe9uNdhn4RzzmLvhN7kV5fQW/nVrNL20Hc19m+M1F7cnSW0F3ed4T3txb0O+ySccxZ7J/Qmv7qE3sqvZpW2h76rsX9jpIYXtx9qw5fpwOEejReR0HvgmWY/FvOuxN6z/fWeyRjFHqmXmlmtmlX4XqT33pmunKvC/hX6rsb+De80fXfmJfTO+mewT0JvY6T24u74G54pvUA9zLsSe8/213smYxR7pF5qZrVqVuF7kd57Z7pyrgr7V+i7Gvs3vNP03ZmX0Dvrn8E+Cb2NkdqLu+NveKb0AvUw70rsPdtf75mMUeyReqmZ1apZhe9Feu+d6cq5Kuxfoe9q7N/wTtN3Z15C76x/Bvsk9DZGai/ujr/hmdIL1MO8K7H3bH+9ZzJGsUfqpWZWq2YVvhfpvXemK+eqsH+Fvquxf8M7Td+deQm9s/4Z7JPQ2xipvbg7/oZnSi9QD/OuxN6z/fWeyRjFHqmXmlmtmlX4XqT33pmunKvC/hX6rsb+De80fXfmJfTO+mewT0JvY6SGF7fhCYerBlyh7aEv+dUk9K7CPgm9lV9N0lboTeit0JfQmzLUVLoKvQcukVWLpId5Cb0N5/ysecW8hN5VGWpWYZ8KfbP+CvMSI7UXd0dXoXcV9knorfxqkrZCb0Jvhb6E3pShptJV6D1wCaZFqHcW8xJ6G875WfOKeQm9qzLUrMI+Ffpm/RXmJUZqL+6OrkLvKuyT0Fv51SRthd6E3gp9Cb0pQ02lq9B74BJMi1DvLOYl9Dac87PmFfMSeldlqFmFfSr0zforzEuM1F7cHV2F3lXYJ6G38qtJ2gq9Cb0V+hJ6U4aaSleh98AlmBah3lnMS+htOOdnzSvmJfSuylCzCvtU6Jv1V5iXGKm9uDu6Cr2rsE9Cb+VXk7QVehN6K/Ql9KYMNZWuQu+BSzAtQr2zmJfQ23DOz5pXzEvoXZWhZhX2qdA3668wLzFSe3F3dBV6V2GfhN7KryZpK/Qm9FboS+hNGWoqXYXeA5dgWoR6ZzEvobfhnJ81r5iX0LsqQ80q7FOhb9ZfYV5ipC5Z3L446eXR21CTtDOYd1Vmhd63Cc/6Np/Xc6bzqql0lXYF9ql6qUnoPZPxtuKdJPQ2Rmov7o5uBvMSet8mPOvbfF7Pmc6rptJV2hXYp+qlJqH3TMbbineS0NsYqb24O7oZzEvofZvwrG/zeT1nOq+aSldpV2CfqpeahN4zGW8r3klCb2Ok9uLu6GYwL6H3bcKzvs3n9ZzpvGoqXaVdgX2qXmoSes9kvK14Jwm9jZHai7ujm8G8hN63Cc/6Np/Xc6bzqql0lXYF9ql6qUnoPZPxtuKdJPQ2RuqSxe1w1YAVehN674yzv8YzVHimCn3Jr2YW81blVtjnyl5vA97VivsybzZX36x/BSO1F/cDcfbXeIYKz1ShL/nVzGLeqtwK+1zZ623Au1pxX+bN5uqb9a9gpPbifiDO/hrPUOGZKvQlv5pZzFuVW2GfK3u9DXhXK+7LvNlcfbP+FYzUXtwPxNlf4xkqPFOFvuRXM4t5q3Ir7HNlr7cB72rFfZk3m6tv1r+CkdqL+4E4+2s8Q4VnqtCX/GpmMW9VboV9ruz1NuBdrbgv82Zz9c36VzBSw4vbgzT8zZH0GyQOd6AuaUcxbxX+jyQaag6caXMffFb7eX2Kd5LuRs2Bu6DaBxX2uTPOfgYzGyO1F/cELu29uF8nPqv9vD7FO0l3o+bAXVDtgwr73BlnP4OZjZHai3sCl/Ze3K8Tn9V+Xp/inaS7UXPgLqj2QYV97oyzn8HMxkjtxT2BS3sv7teJz2o/r0/xTtLdqDlwF1T7oMI+d8bZz2BmY6T24p7Apb0X9+vEZ7Wf16d4J+lu1By4C6p9UGGfO+PsZzCzMVJ7cU/g0t6L+3Xis9rP61O8k3Q3ag7cBdU+qLDPnXH2M5jZGKnhxf33f//3T/jWt77V5bd/+7ef4MBp8ApfiIaaxg9+8IMun/vc557wta99rYuZDWdvOE+aq+L//u//nvDOO+90effdd5/w0UcfPcF5Es6T+Nd//dcuf/AHf/CE99577wn+4DuwT8O7PlBX8d3vfrfLF77whSc4zyqcPfG9733vCR9++GEXzzqLvRtqktZv6+D9999/gt5VOGfiRz/60RO803SvfjOz380MI7UXd2dp78Vd48Leizvj7AmX9l7cGedMuLT34u7g0t6LO+PS3ov7U7zrA3UVLuy9uN9g74aapPXb2ot7HSO1F3dnae/FXePC3os74+wJl/Ze3BnnTLi09+Lu4NLeizvj0t6L+1O86wN1FS7svbjfYO+GmqT129qLex0jNby4v/GNbzzBZXfgg2t4QQc+jNkHojf5vfh0+Wam3Odin1nMS+id9c9gn4TeWcxr+MPsQG/lb6i7Entf2d/vIH0LPZwzzasmaZ1pdq4ZnGcV9pllpPbi7uhmc5+LfWYxL6F31j+DfRJ6ZzGv4cLei/sNfgfpW+jhnGleNUnrTLNzzeA8q7DPLCO1F3dHN5v7XOwzi3kJvbP+GeyT0DuLeQ0X9l7cb/A7SN9CD+dM86pJWmeanWsG51mFfWYZqb24O7rZ3Odin1nMS+id9c9gn4TeWcxruLD34n6D30H6Fno4Z5pXTdI60+xcMzjPKuwzy0jtxd3RzeY+F/vMYl5C76x/Bvsk9M5iXsOFvRf3G/wO0rfQwznTvGqS1plm55rBeVZhn1lGai/ujm4297nYZxbzEnpn/TPYJ6F3FvMaLuy9uN/gd5C+hR7OmeZVk7TONDvXDM6zCvvMMlLDi9tfc2r4QRx88MEHT9B75telPOCdcfaE3oTeCn3Jr+YMZjb8AO/yETpTmktvQ80qnKnh93Lld6Mv+dWs0nrOdFa9Cb1X+tUlbY+R2ov7Ipw9oTeht0Jf8qs5g5kNl1BakM/F3glnSnPpbahZhTPtxZ3Pqjeh90q/uqTtMVJ7cV+Esyf0JvRW6Et+NWcws+ESSgvyudg74UxpLr0NNatwpr2481n1JvRe6VeXtD1Gai/ui3D2hN6E3gp9ya/mDGY2XEJpQT4XeyecKc2lt6FmFc60F3c+q96E3iv96pK2x0jtxX0Rzp7Qm9BboS/51ZzBzIZLKC3I52LvhDOlufQ21KzCmfbizmfVm9B7pV9d0vYYqWctboc7gy9q+ohGsceBuiuxd+rv+Rt6E+Zdib0TepNf3QqtmgPvevads09C7yqcf8U7o2aV1jnTvHpn/TPYJ2HvhpoD+8z2Gqm9uC/C3qm/5599Kc27Ensn9Ca/uhVaNQfe9ew7Z5+E3lU4/4p3Rs0qrXOmefXO+mewT8LeDTUH9pntNVJ7cV+EvVN/zz/7Upp3JfZO6E1+dSu0ag6869l3zj4Jvatw/hXvjJpVWudM8+qd9c9gn4S9G2oO7DPba6T24r4Ie6f+nn/2pTTvSuyd0Jv86lZo1Rx417PvnH0Selfh/CveGTWrtM6Z5tU765/BPgl7N9Qc2Ge210jtxX0R9k79Pf/sS2neldg7oTf51a3QqjnwrmffOfsk9K7C+Ve8M2pWaZ0zzat31j+DfRL2bqg5sM9sr5Hai/si7J36e/7Zl9K8K7F3Qm/yq1uhVXPgXc++c/ZJ6F2F8694Z9Ss0jpnmlfvrH8G+yTs3VBzYJ/ZXiM1vLgNTzh0Qm/yq7sSe8/29yGnB93D3gm9V2LvNIOaSjerfS72SeidxbwVmRX2me2nb9ZfZag5o+2hN6G38qt5CUZqL+4Ce8/2d2nvxV3rZrXPxT4JvbOYtyKzwj6z/fTN+qsMNWe0PfQm9FZ+NS/BSO3FXWDv2f4u7b24a92s9rnYJ6F3FvNWZFbYZ7afvll/laHmjLaH3oTeyq/mJRipvbgL7D3b36W9F3etm9U+F/sk9M5i3orMCvvM9tM3668y1JzR9tCb0Fv51bwEI7UXd4G9Z/u7tPfirnWz2udin4TeWcxbkVlhn9l++mb9VYaaM9oeehN6K7+al2Ckhhe3B7zLIZ0pzaUuaZ+Lfa7E3ldi77vMoKbSVeg9g5kV+s5gZkJvhb5Zf4V5KVdNpau0z8UeqZeaVYzUXtwd3QrscyX2vhJ732UGNZWuQu8ZzKzQdwYzE3or9M36K8xLuWoqXaV9LvZIvdSsYqT24u7oVmCfK7H3ldj7LjOoqXQVes9gZoW+M5iZ0Fuhb9ZfYV7KVVPpKu1zsUfqpWYVI7UXd0e3Avtcib2vxN53mUFNpavQewYzK/SdwcyE3gp9s/4K81KumkpXaZ+LPVIvNasYqb24O7oV2OdK7H0l9r7LDGoqXYXeM5hZoe8MZib0Vuib9VeYl3LVVLpK+1zskXqpWcVIDS9uw18CL+7Ky7sCZ7/yDPa4stcKnHPFrOalXDVJW6G3Ql/yqzmjHcW8M7l6Z/09zDuTq3fW/0hGai/uB+LsV57BHlf2WoFzrpjVvJSrJmkr9FboS341Z7SjmHcmV++sv4d5Z3L1zvofyUjtxf1AnP3KM9jjyl4rcM4Vs5qXctUkbYXeCn3Jr+aMdhTzzuTqnfX3MO9Mrt5Z/yMZqb24H4izX3kGe1zZawXOuWJW81KumqSt0FuhL/nVnNGOYt6ZXL2z/h7mncnVO+t/JCO1F/cDcfYrz2CPK3utwDlXzGpeylWTtBV6K/Qlv5oz2lHMO5Ord9bfw7wzuXpn/Y9kpPbifiDOfuUZ7HFlrxU454pZzUu5apK2Qm+FvuRXc0Y7inlncvXO+nuYdyZX76z/kYzUq1rcrx1fnITehN5Z/x1w/nQGdUk7inkJvS+BM6W51FXouxr7XzmDfSr0zfobehv+vUXp7y8aqb24H4gPOKE3oXfWfwecP51BXdKOYl5C70vgTGkudRX6rsb+V85gnwp9s/6G3oYLey/uV4QPOKE3oXfWfwecP51BXdKOYl5C70vgTGkudRX6rsb+V85gnwp9s/6G3oYLey/uV4QPOKE3oXfWfwecP51BXdKOYl5C70vgTGkudRX6rsb+V85gnwp9s/6G3oYLey/uV4QPOKE3oXfWfwecP51BXdKOYl5C70vgTGkudRX6rsb+V85gnwp9s/6G3oYL+2GL+0/+5E+e4BBpGA934P85PmFmxV//9V93+fznP/+Er33ta13MrM6g5oz25z//+RO++MUvdnnvvfee8NFHHz3BZ3IG52z827/9W5fvfOc7T3jnnXee4DM9cP6G9/dZ9yjf/e53uzhT45NPPhnG2RPOnvje9773BJ9JejYV9mmomeUHP/hBlw8++OAJ3smBmVfyox/96Ane6Sz2SHj/6TmM1F7cnaW9F3f9HF3Ye3FnnD3h0t6Lex0u7b24OzhIGtyHmTCzwoW9F/c5nLPhwt6LO+PsCZf2XtzrcGnvxd3BQdLgPsyEmRUu7L24z+GcDRf2XtwZZ0+4tPfiXodLey/uDg6SBvdhJsyscGHvxX0O52y4sPfizjh7wqW9F/c6XNp7cXdwkDS4DzNhZoULey/uczhnw4W9F3fG2RMu7b241+HS/qVZ3A6dBvcBpRdYbzpkD70N5zzQmzBzBfZI6E0Zau6Cc67CPhX6Dnwv0rust6FmFvNSrpqEZ/qssz0Heyf0Hjjn7Kz2Sb3cRw17N8w78A8VDXskzDtQ1xipvbgLzFyBPRJ6U4aau+Ccq7BPhb4D34v0LuttqJnFvJSrJuGZPutsz8HeCb0Hzjk7q31SL/fRXtwdvKC9uD/FHgm9KUPNXXDOVdinQt+B70V6l/U21MxiXspVk/BMn3W252DvhN4D55yd1T6pl/toL+4OXtBe3J9ij4TelKHmLjjnKuxToe/A9yK9y3obamYxL+WqSXimzzrbc7B3Qu+Bc87Oap/Uy320F3cHL2gv7k+xR0JvylBzF5xzFfap0Hfge5HeZb0NNbOYl3LVJDzTZ53tOdg7offAOWdntU/q5T76pVnchqdhvKC0uHvY50rsfeUM9jiDmVWumjOYmdD72vADTug98E5m70Vv8qtL2iuw951m6OEzbLijGvZI2OMMZjZGai/uTv+rZrDHGcysctWcwcyE3teGH3VC74F3MnsvepNfXdJegb3vNEMPn+Fe3B28jL24P8UeZzCzylVzBjMTel8bftQJvQfeyey96E1+dUl7Bfa+0ww9fIZ7cXfwMvbi/hR7nMHMKlfNGcxM6H1t+FEn9B54J7P3ojf51SXtFdj7TjP08Bnuxd3By9iL+1PscQYzq1w1ZzAzofe14Ued0Hvgnczei97kV5e0V2DvO83Qw2e4F3cHL2Mv7k+xxxnMrHLVnMHMhN7Xhh91Qu+BdzJ7L3qTX13SXoG97zRDD5/hL/XinsGB0+AVeiu/mqSt0Fv51STtDOYl9F6JvQ/8KBpqGuZdiR/lqo9TzV1wzoTehs8vPUc1B2amudRVWjWrsM9sL71nMnqM1F7cBXorv5qkncG8hN4rsfeBH3D1wZt3JS7svbjzGXx+6TmqOTAzzaWu0qpZhX1me+k9k9FjpPbiLtBb+dUk7QzmJfReib0P/ICrD968K3Fh78Wdz+DzS89RzYGZaS51lVbNKuwz20vvmYweI7UXd4Heyq8maWcwL6H3Sux94AdcffDmXYkLey/ufAafX3qOag7MTHOpq7RqVmGf2V56z2T0GKm9uAv0Vn41STuDeQm9V2LvAz/g6oM370pc2Htx5zP4/NJzVHNgZppLXaVVswr7zPbSeyajx0gNL26HS/ihzH4sd8VzJvQ2fMnTh6E3obdhjys/rEo7g3kp0zOtONcM5iX0JvSu8M9g3hnMTLnqKvQl9J7J6GHeisyKkdqLewLPmdDbcNkc6K38FXob9li14NQk7QzmpUzPtOJcM5iX0JvQu8I/g3lnMDPlqqvQl9B7JqOHeSsyK0ZqL+4JPGdCb8Nlc6C38lfobdhj1YJTk7QzmJcyPdOKc81gXkJvQu8K/wzmncHMlKuuQl9C75mMHuatyKwYqb24J/CcCb0Nl82B3spfobdhj1ULTk3SzmBeyvRMK841g3kJvQm9K/wzmHcGM1Ouugp9Cb1nMnqYtyKzYqT24p7Acyb0Nlw2B3orf4Xehj1WLTg1STuDeSnTM6041wzmJfQm9K7wz2DeGcxMueoq9CX0nsnoYd6KzIqRetbidjmnJa03ofdK7P0SM/RwnoTe5Fc3i3kpV02lm9X20DuLeQm9Cb0JvcmvLqG3Qt+sv8K8A3/4Vj+AV2DvCn0HzplmNTOhtzFSe3F3+j96hh7Ok9Cb/OpmMS/lqql0s9oeemcxL6E3oTehN/nVJfRW6Jv1V5h34CJMy/C52LtC34FzplnNTOhtjNRe3J3+j56hh/Mk9Ca/ulnMS7lqKt2stofeWcxL6E3oTehNfnUJvRX6Zv0V5h24CNMyfC72rtB34JxpVjMTehsjtRd3p/+jZ+jhPAm9ya9uFvNSrppKN6vtoXcW8xJ6E3oTepNfXUJvhb5Zf4V5By7CtAyfi70r9B04Z5rVzITexkjtxd3p/+gZejhPQm/yq5vFvJSrptLNanvoncW8hN6E3oTe5FeX0Fuhb9ZfYd6BizAtw+di7wp9B86ZZjUzobcxUntxd/o/eoYezpPQm/zqZjEv5aqpdLPaHnpnMS+hN6E3oTf51SX0Vuib9VeYd+AiTMvwudi7Qt+Bc6ZZzUzobYzU8OI2PA2o7i4454pZzUvofQmc6S5zvTR+lOnj9P4Seldhn1nMm8W8lKsmaWcwbzZT7wr/ioyR2ou7o5vBvITel8CZ7jLXS+PC3os7Y17KVZO0M5g3m6l3hX9Fxkjtxd3RzWBeQu9L4Ex3meulcWHvxZ0xL+WqSdoZzJvN1LvCvyJjpPbi7uhmMC+h9yVwprvM9dK4sPfizpiXctUk7QzmzWbqXeFfkTFSe3F3dDOYl9D7EjjTXeZ6aVzYe3FnzEu5apJ2BvNmM/Wu8K/IGKlnLe7NdfgwD9RVWjWrsE9Cb/Kr28zjnb7E3do7ofdK7F31V5PQu4qR2ov7pviSpJdFTaVbgX0SepNf3WYe7/Ql7tbeCb1XYu+qv5qE3lWM1F7cN8WXJL0sairdCuyT0Jv86jbzeKcvcbf2Tui9EntX/dUk9K5ipPbivim+JOllUVPpVmCfhN7kV7eZxzt9ibu1d0Lvldi76q8moXcVI7UX903xJUkvi5pKtwL7JPQmv7rNPN7pS9ytvRN6r8TeVX81Cb2rGKm9uG+KL0l6WdRUuhXYJ6E3+dVt5vFOX+Ju7Z3QeyX2rvqrSehdxUgNL+4//dM/fYINDzxgOqS6pB3l+9//fpf/9//+3xO+/vWvd/HXwqpfDVNz4JnSuX72s5894Z133uny7rvvPuGjjz56gvOsOsNPfvKTLt/5znee4OwN/16bA+dv2PvA+RtqGn/4h3/YxZkaX/rSl7o45yzOlPiLv/iLJ/hMEuYdqGt4fwnzGn5bBx9++OETzDtwpuoM+s7w4x//+Amf+9znnvC7v/u7XX7lV37lCV/96le7eP6G50znHam9uDtLey/u+gwu7L24M86UcGnvxf0p+s7g0t6Lu4ODNNSc0Y7iy7QX97ozuLD34s44U8KlvRf3p+g7g0t7L+4ODtJQc0Y7ii/TXtzrzuDC3os740wJl/Ze3J+i7wwu7b24OzhIQ80Z7Si+THtxrzuDC3sv7owzJVzae3F/ir4zuLR/aRa3F9HwJT1Qdxe8zIaXdqB3Fh9Q+ljUNbzTtAjMa6hJ2gq9CeevzqsmaSvsXeHdpTt0ngO9lb/C2RP2bvjDLP1QMy+hd9bvnaS70ZvQm9Cb+NVf/dUnfPOb33zCr/3ar3X5yle+8gTnOXjvvfee8OUvf7mLz7UxUntxdy6+oXcWP8C0nNRVC2Pmw1CTtBV6E85fnVdN0lbYu8K7S3foPAd6K3+Fsyfs3fCj3ov7XK5Ley/uDurugkt7L+6M3oTzV+dVk7QV9q7w7tIdOs+B3spf4ewJezf8qPfiPpfr0t6Lu4O6u+DS3os7ozfh/NV51SRthb0rvLt0h85zoLfyVzh7wt4NP+q9uM/lurT34u6g7i64tPfizuhNOH91XjVJW2HvCu8u3aHzHOit/BXOnrB3w496L+5zuS7tX5rF7QOqHlLDS3s0zrNqLvNmM/Um9B74YVdLz7yE3oTelKGm0s1qR/F9Te+t3pfAORs+65d45j2c80DdXfD8DWdvvP/++11cuA1/u+tAXcM/MKY/OI7UXtwTmDebqTeh98AP+NEfsd6UoabSzWpH8X1N763el8A5Gz7rl3jmPZzzQN1d8PwNZ2+4sPfifiDOs2ou82Yz9Sb0HvgBP/oj1psy1FS6We0ovq/pvdX7Ejhnw2f9Es+8h3MeqLsLnr/h7A0X9l7cD8R5Vs1l3mym3oTeAz/gR3/EelOGmko3qx3F9zW9t3pfAuds+Kxf4pn3cM4DdXfB8zecveHC3ov7gTjPqrnMm83Um9B74Af86I9Yb8pQU+lmtaP4vqb3Vu9L4JwNn/VLPPMeznmg7i54/oazN1zYe3E/EOdZNZd5s5l6E3oP/IAf/RHrTRlqKt2sdhTf1/Te6n0JnLPhs36JZ97DOQ/U3QXP33D2hgv71S9uwxu+TOmleiTOmdCbMtRUugq9ZzBzRa55Z3L1zvp7mDebqy/51STtVdj7yv72WdXLzIb74UBdw7xZzEu5airdLGamXHWNkdqLu+OvMtRUugq9ZzBzRa55Z3L1zvp7mDebqy/51STtVdj7yv72WdXLzIb7YS/urB2pvbg7/ipDTaWr0HsGM1fkmncmV++sv4d5s7n6kl9N0l6Fva/sb59VvcxsuB/24s7akdqLu+OvMtRUugq9ZzBzRa55Z3L1zvp7mDebqy/51STtVdj7yv72WdXLzIb7YS/urB2pvbg7/ipDTaWr0HsGM1fkmncmV++sv4d5s7n6kl9N0l6Fva/sb59VvcxsuB/24s7akXrW4naIl8CZEnpn8cW7ww+pWbyT2XvRm9B7JfZO6L0Lzjk7q95ZzEvoPZPRw7wVmY/G+RN6GyO1F/cELu29uDN6r8TeCb13wTlnZ9U7i3kJvWcyepi3IvPROH9Cb2Ok9uKewKW9F3dG75XYO6H3Ljjn7Kx6ZzEvofdMRg/zVmQ+GudP6G2M1F7cE7i09+LO6L0Seyf03gXnnJ1V7yzmJfSeyehh3orMR+P8Cb2NkdqLewKX9l7cGb1XYu+E3rvgnLOz6p3FvITeMxk9zFuR+WicP6G3MVJ7cU/g0t6LO6P3Suyd0HsXnHN2Vr2zmJfQeyajh3krMh+N8yf0NkZqeHEbvmLAO+CcaV41le4OOOfV89qn6qUmaSv0Ptr/tuKdnLkbvcmvLmmfi31me/kHtoZ5CfMSI7UXd2fWal41le4OOOfV89qn6qUmaSv0Ptr/tuKdnLkbvcmvLmmfi31me7m09+J+YZwzzaum0t0B57x6XvtUvdQkbYXeR/vfVryTM3ejN/nVJe1zsc9sL5f2XtwvjHOmedVUujvgnFfPa5+ql5qkrdD7aP/bindy5m70Jr+6pH0u9pnt5dLei/uFcc40r5pKdwec8+p57VP1UpO0FXof7X9b8U7O3I3e5FeXtM/FPrO9XNqvZnE7SMODHDjIo3HOhN6E3lnM27zBu0r3pS5pRzFvFfZJ6E1+dQm9Ffpm/RXmpVw1la5C75mMHuYl9M4yUntxd/wVemcxb/MG7yrdl7qkHcW8VdgnoTf51SX0Vuib9VeYl3LVVLoKvWcyepiX0DvLSO3F3fFX6J3FvM0bvKt0X+qSdhTzVmGfhN7kV5fQW6Fv1l9hXspVU+kq9J7J6GFeQu8sI7UXd8dfoXcW8zZv8K7SfalL2lHMW4V9EnqTX11Cb4W+WX+FeSlXTaWr0Hsmo4d5Cb2zjNRe3B1/hd5ZzNu8wbtK96UuaUcxbxX2SehNfnUJvRX6Zv0V5qVcNZWuQu+ZjB7mJfTOMlJ7cXf8FXpnMW/zBu8q3Ze6pB3FvFXYJ6E3+dUl9Fbom/VXmJdy1VS6Cr1nMnqYl9A7y0hdsrh7ONxL4PwJvZvNZ+E7tOI9Mi+h9y44Z0Lva8QzzZ5rpPbiLtC72XwWvkMr3iPzEnrvgnMm9L5GPNPsuUZqL+4CvZvNZ+E7tOI9Mi+h9y44Z0Lva8QzzZ5rpPbiLtC72XwWvkMr3iPzEnrvgnMm9L5GPNPsuUZqL+4CvZvNZ+E7tOI9Mi+h9y44Z0Lva8QzzZ5rpIYX965du3btukftxb1r165dr6z24t61a9euV1Z7ce/atWvXK6u9uHft2rXrldVe3Lt27dr1ymov7l27du16ZbUX965du3a9stqLe9euXbteWe3FvWvXrl2vrP5/zaT4LqP1ZGoAAAAASUVORK5CYII=;" parent="1" vertex="1">
          <mxGeometry x="390" y="290" width="366" height="366" as="geometry" />
        </mxCell>
        <mxCell id="gvzwviC2EM5JePrp1jfJ-6" value="" style="whiteSpace=wrap;html=1;aspect=fixed;fillColor=none;dashed=1;strokeColor=#FF0000;strokeWidth=3;" parent="1" vertex="1">
          <mxGeometry x="80" y="413" width="120" height="120" as="geometry" />
        </mxCell>
        <mxCell id="gvzwviC2EM5JePrp1jfJ-7" value="" style="endArrow=none;dashed=1;html=1;strokeWidth=3;rounded=0;exitX=1;exitY=0;exitDx=0;exitDy=0;entryX=0.027;entryY=0.027;entryDx=0;entryDy=0;entryPerimeter=0;strokeColor=#FF0000;" parent="1" source="gvzwviC2EM5JePrp1jfJ-6" target="gvzwviC2EM5JePrp1jfJ-5" edge="1">
          <mxGeometry width="50" height="50" relative="1" as="geometry">
            <mxPoint x="390" y="400" as="sourcePoint" />
            <mxPoint x="440" y="350" as="targetPoint" />
          </mxGeometry>
        </mxCell>
        <mxCell id="gvzwviC2EM5JePrp1jfJ-8" value="" style="endArrow=none;dashed=1;html=1;strokeWidth=3;rounded=0;exitX=1;exitY=1;exitDx=0;exitDy=0;strokeColor=#FF0000;entryX=0.027;entryY=0.956;entryDx=0;entryDy=0;entryPerimeter=0;" parent="1" source="gvzwviC2EM5JePrp1jfJ-6" target="gvzwviC2EM5JePrp1jfJ-5" edge="1">
          <mxGeometry width="50" height="50" relative="1" as="geometry">
            <mxPoint x="20" y="170" as="sourcePoint" />
            <mxPoint x="400" y="460" as="targetPoint" />
          </mxGeometry>
        </mxCell>
      </root>
    </mxGraphModel>
  </diagram>
  <diagram id="945cWE4q1m8t-ym-WG1N" name="第 2 页">
    <mxGraphModel dx="5711" dy="2944" grid="1" gridSize="10" guides="1" tooltips="1" connect="1" arrows="1" fold="1" page="1" pageScale="1" pageWidth="827" pageHeight="1169" math="0" shadow="0">
      <root>
        <mxCell id="0" />
        <mxCell id="1" parent="0" />
        <mxCell id="U66KLxw-Jlz_EzCzsbwO-1" value="" style="shape=image;verticalLabelPosition=bottom;labelBackgroundColor=default;verticalAlign=top;aspect=fixed;imageAspect=0;image=data:image/png,iVBORw0KGgoAAAANSUhEUgAAE3QAAABhCAYAAAAwlSfFAAAZBElEQVR4Xu3csQ3tMHKG0VfAFqRKDJexHWzmClSAi5hSWMXGmz/HHgrikMAlCOF8wEkUTsJI/5+/kiRJkiRJkiRJkiRJkiRJkiRJkiRJkiRJkiRJkqSl/uQPkiRJkiRJkiRJkiRJkiRJkiRJkiRJkiRJkiRJkqRaBt0kSZIkSZIkSZIkSZIkSZIkSZIkSZIkSZIkSZIkaTGDbpIkSZIkSZIkSZIkSZIkSZIkSZIkSZIkSZIkSZK0mEE3SZIkSZIkSZIkSZIkSZIkSZIkSZIkSZIkSZIkSVrMoJskSZIkSZIkSZIkSZIkSZIkSZIkSZIkSZIkSZIkLWbQTZIkSZIkSZIkSZIkSZIkSZIkSZIkSZIkSZIkSZIWM+gmSZIkSZIkSZIkSZIkSZIkSZIkSZIkSZIkSZIkSYsZdJMkSZIkSZIkSZIkSZIkSZIkSZIkSZIkSZIkSZKkxQy6SZIkSZIkSZIkSZIkSZIkSZIkSZIkSZIkSZIkSdJi5UG3f/35w6Q/919W/PkXk/7r7/+y4B//+TeT/ufvP1nw57//MutiSWNasKQxK7+p1OQ7MpZvSE2+IwUBm9zA0QI4VoNNAgAAAAAAAAAAAAAAvq2aQbcf6n5uo+ZhsIx3eaiMmjziwFgeKqOmGytj7GJJY1qwpDErv6nU5Dsylm9ITb4jBQGb3MDRAjhWg00CAAAAAAAAAAAAAAC+rZpBtx/qfm6j5mGwjHd5qIyaPOLAWB4qo6YbK2PsYkljWrCkMSu/qdTkOzKWb0hNviMFAZvcwNECOFaDTQIAAAAAAAAAAAAAAL6tmkG3H+p+bqPmYbCMd3mojJo84sBYHiqjphsrY+xiSWNasKQxK7+p1OQ7MpZvSE2+IwUBm9zA0QI4VoNNAgAAAAAAAAAAAAAAvq2aQbcf6n5uo+ZhsIx3eaiMmjziwFgeKqOmGytj7GJJY1qwpDErv6nU5Dsylm9ITb4jBQGb3MDRAjhWg00CAAAAAAAAAAAAAAC+rZpBtx/qfm6j5mGwjHd5qIyaPOLAWB4qo6YbK2PsYkljWrCkMSu/qdTkOzKWb0hNviMFAZvcwNECOFaDTQIAAAAAAAAAAAAAAL6tmkG3H+p+bqPmYbCMd3mojJo84sBYHiqjphsrY+xiSWNasKQxK7+p1OQ7MpZvSE2+IwUBm9zA0QI4VoNNAgAAAAAAAAAAAAAAvq2aQbcf6n5uo+ZhsIx3eaiMmjziwFgeKqOmGytj7GJJY1qwpDErv6nU5Dsylm9ITb4jBQGb3MDRAjhWg00CAAAAAAAAAAAAAAC+rZpBtx/qfm6j5mGwjHd5qIyaPOLAWB4qo6YbK2PsYkljWrCkMSu/qdTkOzKWb0hNviMFAZvcwNECOFaDTQIAAAAAAAAAAAAAAL6tmkG3H+p+bqPmYbCMd3mojJo84sBYHiqjphsrY+xiSWNasKQxK7+p1OQ7MpZvSE2+IwUBm9zA0QI4VoNNAgAAAAAAAAAAAAAAvq2aQbcf6n5uo+ZhsIx3eaiMmjziwFgeKqOmGytj7GJJY1qwpDErv6nU5Dsylm9ITb4jBQGb3MDRAjhWg00CAAAAAAAAAAAAAAC+rZpBtx/qfm6j5mGwjHd5qIyaPOLAWB4qo6YbK2PsYkljWrCkMSu/qdTkOzKWb0hNviMFAZvcwNECOFaDTQIAAAAAAAAAAAAAAL6tmkG3H+p+bqPmYbCMd3mojJo84sBYHiqjphsrY+xiSWNasKQxK7+p1OQ7MpZvSE2+IwUBm9zA0QI4VoNNAgAAAAAAAAAAAAAAvq2aQbcf6n5uo+ZhsIx3eaiMmjziwFgeKqOmGytj7GJJY1qwpDErv6nU5Dsylm9ITb4jBQGb3MDRAjhWg00CAAAAAAAAAAAAAAC+rZpBtx/qfm6j5mGwjHd5qIyaPOLAWB4qo6YbK2PsYkljWrCkMSu/qdTkOzKWb0hNviMFAZvcwNECOFaDTQIAAAAAAAAAAAAAAL6tmkG3H+p+bqPmYbCMd3mojJo84sBYHiqjphsrY+xiSWNasKQxK7+p1OQ7MpZvSE2+IwUBm9zA0QI4VoNNAgAAAAAAAAAAAAAAvq2aQbcf6n5uo+ZhsIx3eaiMmjziwFgeKqOmGytj7GJJY1qwpDErv6nU5Dsylm9ITb4jBQGb3MDRAjhWg00CAAAAAAAAAAAAAAC+rZpBtx/qfm6j5mGwjHd5qIyaPOLAWB4qo6YbK2PsYkljWrCkMSu/qdTkOzKWb0hNviMFAZvcwNECOFaDTQIAAAAAAAAAAAAAAL6tmkG3H+p+bqPmYbCMd3mojJo84sBYHiqjphsrY+xiSWNasKQxK7+p1OQ7MpZvSE2+IwUBm9zA0QI4VoNNAgAAAAAAAAAAAAAAvq2aQbcf6n5uo+ZhsIx3eaiMmjziwFgeKqOmGytj7GJJY1qwpDErv6nU5Dsylm9ITb4jBQGb3MDRAjhWg00CAAAAAAAAAAAAAAC+rZpBtx/qfm6j5mGwjHd5qIyaPOLAWB4qo6YbK2PsYkljWrCkMSu/qdTkOzKWb0hNviMFAZvcwNECOFaDTQIAAAAAAAAAAAAAAL6tmkG3H+p+bqPmYbCMd3mojJo84sBYHiqjphsrY+xiSWNasKQxK7+p1OQ7MpZvSE2+IwUBm9zA0QI4VoNNAgAAAAAAAAAAAAAAvq2aQbcf6n5uo+ZhsIx3eaiMmjziwFgeKqOmGytj7GJJY1qwpDErv6nU5Dsylm9ITb4jBQGb3MDRAjhWg00CAAAAAAAAAAAAAAC+rZpBtx/qfm6j5mGwjHd5qIyaPOLAWB4qo6YbK2PsYkljWrCkMSu/qdTkOzKWb0hNviMFAZvcwNECOFaDTQIAAAAAAAAAAAAAAL6tmkG3H+p+bqPmYbCMd3mojJo84sBYHiqjphsrY+xiSWNasKQxK7+p1OQ7MpZvSE2+IwUBm9zA0QI4VoNNAgAAAAAAAAAAAAAAvq2aQbcf6n5uo+ZhsIx3eaiMmjziwFgeKqOmGytj7GJJY1qwpDErv6nU5Dsylm9ITb4jBQGb3MDRAjhWg00CAAAAAAAAAAAAAAC+rZpBtx/qfm6j5mGwjHd5qIyaPOLAWB4qo6YbK2PsYkljWrCkMSu/qdTkOzKWb0hNviMFAZvcwNECOFaDTQIAAAAAAAAAAAAAAL6tmkG3H+p+bqPmYbCMd3mojJo84sBYHiqjphsrY+xiSWNasKQxK7+p1OQ7MpZvSE2+IwUBm9zA0QI4VoNNAgAAAAAAAAAAAAAAvq2aQbcf6n5uo+ZhsIx3eaiMmjziwFgeKqOmGytj7GJJY1qwpDErv6nU5Dsylm9ITb4jBQGb3MDRAjhWg00CAAAAAAAAAAAAAAC+rZpBtx/qfm6j5mGwjHd5qIyaPOLAWB4qo6YbK2PsYkljWrCkMSu/qdTkOzKWb0hNviMFAZvcwNECOFaDTQIAAAAAAAAAAAAAAL6tmkG3H+p+bqPmYbCMd3mojJo84sBYHiqjphsrY+xiSWNasKQxK7+p1OQ7MpZvSE2+IwUBm9zA0QI4VoNNAgAAAAAAAAAAAAAAvq2aQbcf6n5uo+ZhsIx3eaiMmjziwFgeKqOmGytj7GJJY1qwpDErv6nU5Dsylm9ITb4jBQGb3MDRAjhWg00CAAAAAAAAAAAAAAC+rZpBtx/qfm6j5mGwjHd5qIyaPOLAWB4qo6YbK2PsYkljWrCkMSu/qdTkOzKWb0hNviMFAZvcwNECOFaDTQIAAAAAAAAAAAAAAL6tmkG3H+p+bqPmYbCMd3mojJo84sBYHiqjphsrY+xiSWNasKQxK7+p1OQ7MpZvSE2+IwUBm9zA0QI4VoNNAgAAAAAAAAAAAAAAvq2aQbcf6n5uo+ZhsIx3eaiMmjziwFgeKqOmGytj7GJJY1qwpDErv6nU5Dsylm9ITb4jBQGb3MDRAjhWg00CAAAAAAAAAAAAAAC+rZpBtx/qfm6j5mGwjHd5qIyaPOLAWB4qo6YbK2PsYkljWrCkMSu/qdTkOzKWb0hNviMFAZvcwNECOFaDTQIAAAAAAAAAAAAAAL6tmkG3H+p+bqPmYbCMd3mojJo84sBYHiqjphsrY+xiSWNasKQxK7+p1OQ7MpZvSE2+IwUBm9zA0QI4VoNNAgAAAAAAAAAAAAAAvq2aQbcf6n5uo+ZhsIx3eaiMmjziwFgeKqOmGytj7GJJY1qwpDErv6nU5Dsylm9ITb4jBQGb3MDRAjhWg00CAAAAAAAAAAAAAAC+rZpBtx/qfm6j5mGwjHd5qIyaPOLAWB4qo6YbK2PsYkljWrCkMSu/qdTkOzKWb0hNviMFAZvcwNECOFaDTQIAAAAAAAAAAAAAAL6tmkG3H+p+bqPmYbCMd3mojJo84sBYHiqjphsrY+xiSWNasKQxK7+p1OQ7MpZvSE2+IwUBm9zA0QI4VoNNAgAAAAAAAAAAAAAAvq2aQbcf6n5uo+ZhsIx3eaiMmjziwFgeKqOmGytj7GJJY1qwpDErv6nU5Dsylm9ITb4jBQGb3MDRAjhWg00CAAAAAAAAAAAAAAC+rZpBtx/qfm6j5mGwjHd5qIyaPOLAWB4qo6YbK2PsYkljWrCkMSu/qdTkOzKWb0hNviMFAZvcwNECOFaDTQIAAAAAAAAAAAAAAL6tmkG3H+p+bqPmYbCMd3mojJo84sBYHiqjphsrY+xiSWNasKQxK7+p1OQ7MpZvSE2+IwUBm9zA0QI4VoNNAgAAAAAAAAAAAAAAvq2aQbcf6n5uo+ZhsIx3eaiMmjziwFgeKqOmGytj7GJJY1qwpDErv6nU5Dsylm9ITb4jBQGb3MDRAjhWg00CAAAAAAAAAAAAAAC+rZpBtx/qfm6j5mGwjHd5qIyaPOLAWB4qo6YbK2PsYkljWrCkMSu/qdTkOzKWb0hNviMFAZvcwNECOFaDTQIAAAAAAAAAAAAAAL6tmkG3H+p+bqPmYbCMd3mojJo84sBYHiqjphsrY+xiSWNasKQxK7+p1OQ7MpZvSE2+IwUBm9zA0QI4VoNNAgAAAAAAAAAAAAAAvq2aQbcf6n5uo+ZhsIx3eaiMmjziwFgeKqOmGytj7GJJY1qwpDErv6nU5Dsylm9ITb4jBQGb3MDRAjhWg00CAAAAAAAAAAAAAAC+rZpBtx/qfm6j5mGwjHd5qIyaPOLAWB4qo6YbK2PsYkljWrCkMSu/qdTkOzKWb0hNviMFAZvcwNECOFaDTQIAAAAAAAAAAAAAAL6tmkG3H+p+bqPmYbCMd3mojJo84sBYHiqjphsrY+xiSWNasKQxK7+p1OQ7MpZvSE2+IwUBm9zA0QI4VoNNAgAAAAAAAAAAAAAAvq2aQbcf6n5uo+ZhsIx3eaiMmjziwFgeKqOmGytj7GJJY1qwpDErv6nU5Dsylm9ITb4jBQGb3MDRAjhWg00CAAAAAAAAAAAAAAC+rZpBtx/qfm6j5mGwjHd5qIyaPOLAWB4qo6YbK2PsYkljWrCkMSu/qdTkOzKWb0hNviMFAZvcwNECOFaDTQIAAAAAAAAAAAAAAL6tmkG3H+p+bqPmYbCMd3mojJo84sBYHiqjphsrY+xiSWNasKQxK7+p1OQ7MpZvSE2+IwUBm9zA0QI4VoNNAgAAAAAAAAAAAAAAvq2aQbcf6n5uo+ZhsIx3eaiMmjziwFgeKqOmGytj7GJJY1qwpDErv6nU5Dsylm9ITb4jBQGb3MDRAjhWg00CAAAAAAAAAAAAAAC+rZpBtx/qfm6j5mGwjHd5qIyaPOLAWB4qo6YbK2PsYkljWrCkMSu/qdTkOzKWb0hNviMFAZvcwNECOFaDTQIAAAAAAAAAAAAAAL6tmkG3H+p+bqPmYbCMd3mojJo84sBYHiqjphsrY+xiSWNasKQxK7+p1OQ7MpZvSE2+IwUBm9zA0QI4VoNNAgAAAAAAAAAAAAAAvq2aQbcf6n5uo+ZhsIx3eaiMmjziwFgeKqOmGytj7GJJY1qwpDErv6nU5Dsylm9ITb4jBQGb3MDRAjhWg00CAAAAAAAAAAAAAAC+rZpBtx/qfm6j5mGwjHd5qIyaPOLAWB4qo6YbK2PsYkljWrCkMSu/qdTkOzKWb0hNviMFAZvcwNECOFaDTQIAAAAAAAAAAAAAAL6tmkG3H+p+bqPmYbCMd3mojJo84sBYHiqjphsrY+xiSWNasKQxK7+p1OQ7MpZvSE2+IwUBm9zA0QI4VoNNAgAAAAAAAAAAAAAAvq2aQbcf6n5uo+ZhsIx3eaiMmjziwFgeKqOmGytj7GJJY1qwpDErv6nU5Dsylm9ITb4jBQGb3MDRAjhWg00CAAAAAAAAAAAAAAC+rZpBtx/qfm6j5mGwjHd5qIyaPOLAWB4qo6YbK2PsYkljWrCkMSu/qdTkOzKWb0hNviMFAZvcwNECOFaDTQIAAAAAAAAAAAAAAL6tmkG3H+p+bqPmYbCMd3mojJo84sBYHiqjphsrY+xiSWNasKQxK7+p1OQ7MpZvSE2+IwUBm9zA0QI4VoNNAgAAAAAAAAAAAAAAvq2aQbcf6n5uo+ZhsIx3eaiMmjziwFgeKqOmGytj7GJJY1qwpDErv6nU5Dsylm9ITb4jBQGb3MDRAjhWg00CAAAAAAAAAAAAAAC+rZpBtx/qfm6j5mGwjHd5qIyaPOLAWB4qo6YbK2PsYkljWrCkMSu/qdTkOzKWb0hNviMFAZvcwNECOFaDTQIAAAAAAAAAAAAAAL6tmkG3H+p+bqPmYbCMd3mojJo84sBYHiqjphsrY+xiSWNasKQxK7+p1OQ7MpZvSE2+IwUBm9zA0QI4VoNNAgAAAAAAAAAAAAAAvq2aQbcf6n5uo+ZhsIx3eaiMmjziwFgeKqOmGytj7GJJY1qwpDErv6nU5Dsylm9ITb4jBQGb3MDRAjhWg00CAAAAAAAAAAAAAAC+rZpBtx/qfm6j5mGwjHd5qIyaPOLAWB4qo6YbK2PsYkljWrCkMSu/qdTkOzKWb0hNviMFAZvcwNECOFaDTQIAAAAAAAAAAAAAAL6tmkG3H+p+bqPmYbCMd3mojJo84sBYHiqjphsrY+xiSWNasKQxK7+p1OQ7MpZvSE2+IwUBm9zA0QI4VoNNAgAAAAAAAAAAAAAAvq2aQbcf6n5uo+ZhsIx3eaiMmjziwFgeKqOmGytj7GJJY1qwpDErv6nU5Dsylm9ITb4jBQGb3MDRAjhWg00CAAAAAAAAAAAAAAC+rZpBtx/qfm6j5mGwjHd5qIyaPOLAWB4qo6YbK2PsYkljWrCkMSu/qdTkOzKWb0hNviMFAZvcwNECOFaDTQIAAAAAAAAAAAAAAL6tmkG3H+p+bqPmYbCMd3mojJo84sBYHiqjphsrY+xiSWNasKQxK7+p1OQ7MpZvSE2+IwUBm9zA0QI4VoNNAgAAAAAAAAAAAAAAvq2aQbcf6n5uo+ZhsIx3eaiMmjziwFgeKqOmGytj7GJJY1qwpDErv6nU5Dsylm9ITb4jBQGb3MDRAjhWg00CAAAAAAAAAAAAAAC+rZpBtx/qfm6j5mGwjHd5qIyaPOLAWB4qo6YbK2PsYkljWrCkMSu/qdTkOzKWb0hNviMFAZvcwNECOFaDTQIAAAAAAAAAAAAAAL6tmkG3H+p+bqPmYbCMd3mojJo84sBYHiqjphsrY+xiSWNasKQxK7+p1OQ7MpZvSE2+IwUBm9zA0QI4VoNNAgAAAAAAAAAAAAAAvq2aQbcf6n5uo+ZhsIx3eaiMmjziwFgeKqOmGytj7GJJY1qwpDErv6nU5Dsylm9ITb4jBQGb3MDRAjhWg00CAAAAAAAAAAAAAAC+rZpBtx/qfm6j5mGwjHd5qIyaPOLAWB4qo6YbK2PsYkljWrCkMSu/qdTkOzKWb0hNviMFAZvcwNECOFaDTQIAAAAAAAAAAAAAAL6tmkG3H+p+bqPmYbCMd3mojJo84sBYHiqjphsrY+xiSWNasKQxK7+p1OQ7MpZvSE2+IwUBm9zA0QI4VoNNAgAAAAAAAAAAAAAAvq2aQbcf6n5uo+ZhsIx3eaiMmjziwFgeKqOmGytj7GJJY1qwpDErv6nU5Dsylm9ITb4jBQGb3MDRAjhWg00CAAAAAAAAAAAAAAC+rVp50E2SJEmSJEmSJEmSJEmSJEmSJEmSJEmSJEmSJEmS9P8z6CZJkiRJkiRJkiRJkiRJkiRJkiRJkiRJkiRJkiRJixl0kyRJkiRJkiRJkiRJkiRJkiRJkiRJkiRJkiRJkqTFDLpJkiRJkiRJkiRJkiRJkiRJkiRJkiRJkiRJkiRJ0mIG3SRJkiRJkiRJkiRJkiRJkiRJkiRJkiRJkiRJkiRpMYNukiRJkiRJkiRJkiRJkiRJkiRJkiRJkiRJkiRJkrSYQTdJkiRJkiRJkiRJkiRJkiRJkiRJkiRJkiRJkiRJWsygmyRJkiRJkiRJkiRJkiRJkiRJkiRJkiRJkiRJkiQtZtBNkiRJkiRJkiRJkiRJkiRJkiRJkiRJkiRJkiRJkhYz6CZJkiRJkiRJkiRJkiRJkiRJkiRJkiRJkiRJkiRJi/0ffKTunxeBlFcAAAAASUVORK5CYII=;" vertex="1" parent="1">
          <mxGeometry x="-160" y="460" width="4980" height="97" as="geometry" />
        </mxCell>
        <mxCell id="U66KLxw-Jlz_EzCzsbwO-2" value="" style="shape=image;verticalLabelPosition=bottom;labelBackgroundColor=default;verticalAlign=top;aspect=fixed;imageAspect=0;image=data:image/png,iVBORw0KGgoAAAANSUhEUgAAAZQAAAGVCAYAAADZmQcFAAAOkUlEQVR4Xu3VsY32sJmF0SnABbmSxZbhDpy5AhXgIlgKq3Ds/HdOLcwLYaDFFc8DnGSCb8BA7/35I0nSL/Sz/kGSpCcZFEnSr2RQJEm/kkGRJP1KBkWS9CsZFEnSr2RQJEm/kkGRJP1KBkWS9CvFg/L3n59qP9efav/487dqP//7p9v8gAHPJRmUEuuBbnM70G3mBwx4LsmglFgPdJvbgW4zP2DAc0kGpcR6oNvcDnSb+QEDnksyKCXWA93mdqDbzA8Y8FySQSmxHug2twPdZn7AgOeSDEqJ9UC3uR3oNvMDBjyXZFBKrAe6ze1At5kfMOC5JINSYj3QbW4Hus38gAHPJRmUEuuBbnM70G3mBwx4LsmglFgPdJvbgW4zP2DAc0kGpcR6oNvcDnSb+QEDnksyKCXWA93mdqDbzA8Y8FySQSmxHug2twPdZn7AgOeSDEqJ9UC3uR3oNvMDBjyXZFBKrAe6ze1At5kfMOC5JINSYj3QbW4Hus38gAHPJRmUEuuBbnM70G3mBwx4LsmglFgPdJvbgW4zP2DAc0kGpcR6oNvcDnSb+QEDnksyKCXWA93mdqDbzA8Y8FySQSmxHug2twPdZn7AgOeSDEqJ9UC3uR3oNvMDBjyXZFBKrAe6ze1At5kfMOC5JINSYj3QbW4Hus38gAHPJRmUEuuBbnM70G3mBwx4LsmglFgPdJvbgW4zP2DAc0kGpcR6oNvcDnSb+QEDnksyKCXWA93mdqDbzA8Y8FySQSmxHug2twPdZn7AgOeSDEqJ9UC3uR3oNvMDBjyXZFBKrAe6ze1At5kfMOC5JINSYj3QbW4Hus38gAHPJRmUEuuBbnM70G3mBwx4LsmglFgPdJvbgW4zP2DAc0kGpcR6oNvcDnSb+QEDnksyKCXWA93mdqDbzA8Y8FySQSmxHug2twPdZn7AgOeSDEqJ9UC3uR3oNvMDBjyXZFBKrAe6ze1At5kfMOC5JINSYj3QbW4Hus38gAHPJRmUEuuBbnM70G3mBwx4LsmglFgPdJvbgW4zP2DAc0kGpcR6oNvcDnSb+QEDnksyKCXWA93mdqDbzA8Y8FySQSmxHug2twPdZn7AgOeSDEqJ9UC3uR3oNvMDBjyXZFBKrAe6ze1At5kfMOC5pHhQfn7+Xu0v//5XtZ+//qm2vqfN+nHBaZIMSon1QLdZ39Nm/bjgNEkGpcR6oNus72mzflxwmiSDUmI90G3W97RZPy44TZJBKbEe6Dbre9qsHxecJsmglFgPdJv1PW3WjwtOk2RQSqwHus36njbrxwWnSTIoJdYD3WZ9T5v144LTJBmUEuuBbrO+p836ccFpkgxKifVAt1nf02b9uOA0SQalxHqg26zvabN+XHCaJINSYj3Qbdb3tFk/LjhNkkEpsR7oNut72qwfF5wmyaCUWA90m/U9bdaPC06TZFBKrAe6zfqeNuvHBadJMigl1gPdZn1Pm/XjgtMkGZQS64Fus76nzfpxwWmSDEqJ9UC3Wd/TZv244DRJBqXEeqDbrO9ps35ccJokg1JiPdBt1ve0WT8uOE2SQSmxHug263varB8XnCbJoJRYD3Sb9T1t1o8LTpNkUEqsB7rN+p4268cFp0kyKCXWA91mfU+b9eOC0yQZlBLrgW6zvqfN+nHBaZIMSon1QLdZ39Nm/bjgNEkGpcR6oNus72mzflxwmiSDUmI90G3W97RZPy44TZJBKbEe6Dbre9qsHxecJsmglFgPdJv1PW3WjwtOk2RQSqwHus36njbrxwWnSTIoJdYD3WZ9T5v144LTJBmUEuuBbrO+p836ccFpkgxKifVAt1nf02b9uOA0SQalxHqg26zvabN+XHCaJINSYj3Qbdb3tFk/LjhNkkEpsR7oNut72qwfF5wmyaCUWA90m/U9bdaPC06TZFBKrAe6zfqeNuvHBadJMigl1gPdZn1Pm/XjgtMkGZQS64Fus76nzfpxwWmSDEqJ9UC3Wd/TZv244DRJBqXEeqDbrO9ps35ccJokg1JiPdBt1ve0WT8uOE2SQSmxHug263varB8XnCbJoJRYD3Sb9T1t1o8LTpNkUEqsB7rN+p4268cFp0kyKCXWA91mfU+b9eOC0yTFg/I/f/5Z7Wf+4f/TVW7A2ZIMCu+4yg04W5JB4R1XuQFnSzIovOMqN+BsSQaFd1zlBpwtyaDwjqvcgLMlGRTecZUbcLYkg8I7rnIDzpZkUHjHVW7A2ZIMCu+4yg04W5JB4R1XuQFnSzIovOMqN+BsSQaFd1zlBpwtyaDwjqvcgLMlGRTecZUbcLYkg8I7rnIDzpZkUHjHVW7A2ZIMCu+4yg04W5JB4R1XuQFnSzIovOMqN+BsSQaFd1zlBpwtyaDwjqvcgLMlGRTecZUbcLYkg8I7rnIDzpZkUHjHVW7A2ZIMCu+4yg04W5JB4R1XuQFnSzIovOMqN+BsSQaFd1zlBpwtyaDwjqvcgLMlGRTecZUbcLYkg8I7rnIDzpZkUHjHVW7A2ZIMCu+4yg04W5JB4R1XuQFnSzIovOMqN+BsSQaFd1zlBpwtyaDwjqvcgLMlGRTecZUbcLYkg8I7rnIDzpZkUHjHVW7A2ZIMCu+4yg04W5JB4R1XuQFnSzIovOMqN+BsSQaFd1zlBpwtyaDwjqvcgLMlGRTecZUbcLYkg8I7rnIDzpYUD8r6423+8u9/VbsduDaz3ICzJRmUErcD3WaWG3C2JINS4nag28xyA86WZFBK3A50m1luwNmSDEqJ24FuM8sNOFuSQSlxO9BtZrkBZ0syKCVuB7rNLDfgbEkGpcTtQLeZ5QacLcmglLgd6Daz3ICzJRmUErcD3WaWG3C2JINS4nag28xyA86WZFBK3A50m1luwNmSDEqJ24FuM8sNOFuSQSlxO9BtZrkBZ0syKCVuB7rNLDfgbEkGpcTtQLeZ5QacLcmglLgd6Daz3ICzJRmUErcD3WaWG3C2JINS4nag28xyA86WZFBK3A50m1luwNmSDEqJ24FuM8sNOFuSQSlxO9BtZrkBZ0syKCVuB7rNLDfgbEkGpcTtQLeZ5QacLcmglLgd6Daz3ICzJRmUErcD3WaWG3C2JINS4nag28xyA86WZFBK3A50m1luwNmSDEqJ24FuM8sNOFuSQSlxO9BtZrkBZ0syKCVuB7rNLDfgbEkGpcTtQLeZ5QacLcmglLgd6Daz3ICzJRmUErcD3WaWG3C2JINS4nag28xyA86WZFBK3A50m1luwNmSDEqJ24FuM8sNOFuSQSlxO9BtZrkBZ0syKCVuB7rNLDfgbEkGpcTtQLeZ5QacLcmglLgd6Daz3ICzJRmUErcD3WaWG3C2JINS4nag28xyA86WZFBK3A50m1luwNmSDEqJ24FuM8sNOFuSQSlxO9BtZrkBZ0syKCVuB7rNLDfgbEkGpcTtQLeZ5QacLSkflFnuKjfLDaBZkkFpMcsNoFmSQWkxyw2gWZJBaTHLDaBZkkFpMcsNoFmSQWkxyw2gWZJBaTHLDaBZkkFpMcsNoFmSQWkxyw2gWZJBaTHLDaBZkkFpMcsNoFmSQWkxyw2gWZJBaTHLDaBZkkFpMcsNoFmSQWkxyw2gWZJBaTHLDaBZkkFpMcsNoFmSQWkxyw2gWZJBaTHLDaBZkkFpMcsNoFmSQWkxyw2gWZJBaTHLDaBZkkFpMcsNoFmSQWkxyw2gWZJBaTHLDaBZkkFpMcsNoFmSQWkxyw2gWZJBaTHLDaBZkkFpMcsNoFmSQWkxyw2gWZJBaTHLDaBZkkFpMcsNoFmSQWkxyw2gWZJBaTHLDaBZkkFpMcsNoFmSQWkxyw2gWZJBaTHLDaBZkkFpMcsNoFmSQWkxyw2gWZJBaTHLDaBZkkFpMcsNoFmSQWkxyw2gWZJBaTHLDaBZkkFpMcsNoFmSQWkxyw2gWZJBaTHLDaBZkkFpMcsNoFmSQWkxyw2gWZJBaTHLDaBZUj4o/8c/AOAMSQYFgK0kgwLAVpJBAWAryaAAsJVkUADYSjIoAGwlGRQAtpIMCgBbSQYFgK0kgwLAVpJBAWAryaAAsJVkUADYSjIoAGwlGRQAtpIMCgBbSQYFgK0kgwLAVpJBAWAryaAAsJVkUADYSjIoAGwlGRQAtpIMCgBbSQYFgK0kgwLAVpJBAWAryaAAsJVkUADYSjIoAGwlGRQAtpIMCgBbSQYFgK0kgwLAVpJBAWAryaAAsJVkUADYSjIoAGwlGRQAtpIMCgBbSQYFgK0kgwLAVpJBAWAryaAAsJVkUADYSjIoAGwlGRQAtpIMCgBbSQYFgK0kgwLAVpJBAWAryaAAsJVkUADYSjIoAGwlGRQAtpIMCgBbSQYFgK0kgwLAVpJBAWAryaAAsJVkUADYSjIoAGwlGRQAtpIMCgBbSQYFgK0kgwLAVpJBAWAryaAAsJVkUADYSjIoAGwlGRQAtpIMCgBbSQYFgK0kgwLAVpJBAWAryaAAsJVkUADYSjIoAGwlGRQAtpIMCgBbSQYFgK0kgwLAVpJBAWAryaAAsJVkUADYSjIoAGwlGRQAtpIMCgBbSQYFgK0kgwLAVpJBAWAryaAAsJVkUADYSjIoAGwlGRQAtpIMCgBbSQYFgK0kgwLAVpJBAWAryaAAsJVkUADYSjIoAGwlGRQAtpIMCgBbSQYFgK0kgwLAVpJBAWAryaAAsJVkUADYSjIoAGwlGRQAtpIMCgBbSQYFgK0kgwLAVpJBAWAryaAAsJVkUADYSjIoAGwlGRQAtpIMCgBbSQYFgK0kgwLAVpJBAWAryaAAsJVkUADYSjIoAGwlGRQAtpIMCgBbSQYFgK0kgwLAVpJBAWAryaAAsJVkUADYSjIoAGwlGRQAtpIMCgBbSQYFgK0kgwLAVpJBAWAryaAAsJVkUADYSjIoAGwlGRQAtpLiQZEk6b9lUCRJv5JBkST9SgZFkvQrGRRJ0q9kUCRJv5JBkST9SgZFkvQrGRRJ0q9kUCRJv9J/ADKjGa99FNtAAAAAAElFTkSuQmCC;" vertex="1" parent="1">
          <mxGeometry x="-140" width="404" height="405" as="geometry" />
        </mxCell>
      </root>
    </mxGraphModel>
  </diagram>
</mxfile>
